<?xml version="1.0" encoding="UTF-8"?>
<svg xmlns="http://www.w3.org/2000/svg" xmlns:xlink="http://www.w3.org/1999/xlink" width="396.19812pt" height="297.26825pt" viewBox="0 0 396.19812 297.26825" version="1.1">
<defs>
<clipPath id="clip1">
  <path d="M 54 153 L 88 153 L 88 266.511719 L 54 266.511719 Z M 54 153 "/>
</clipPath>
<clipPath id="clip2">
  <path d="M 87 41 L 120 41 L 120 266.511719 L 87 266.511719 Z M 87 41 "/>
</clipPath>
<clipPath id="clip3">
  <path d="M 119 12 L 153 12 L 153 266.511719 L 119 266.511719 Z M 119 12 "/>
</clipPath>
<clipPath id="clip4">
  <path d="M 152 43 L 185 43 L 185 266.511719 L 152 266.511719 Z M 152 43 "/>
</clipPath>
<clipPath id="clip5">
  <path d="M 184 86 L 218 86 L 218 266.511719 L 184 266.511719 Z M 184 86 "/>
</clipPath>
<clipPath id="clip6">
  <path d="M 217 131 L 250 131 L 250 266.511719 L 217 266.511719 Z M 217 131 "/>
</clipPath>
<clipPath id="clip7">
  <path d="M 249 172 L 283 172 L 283 266.511719 L 249 266.511719 Z M 249 172 "/>
</clipPath>
<clipPath id="clip8">
  <path d="M 282 208 L 315 208 L 315 266.511719 L 282 266.511719 Z M 282 208 "/>
</clipPath>
<clipPath id="clip9">
  <path d="M 314 236 L 348 236 L 348 266.511719 L 314 266.511719 Z M 314 236 "/>
</clipPath>
<clipPath id="clip10">
  <path d="M 347 254 L 380 254 L 380 266.511719 L 347 266.511719 Z M 347 254 "/>
</clipPath>
<clipPath id="clip11">
  <path d="M 208 289 L 214 289 L 214 297.269531 L 208 297.269531 Z M 208 289 "/>
</clipPath>
<clipPath id="clip12">
  <path d="M 209 0.398438 L 212 0.398438 L 212 266.511719 L 209 266.511719 Z M 209 0.398438 "/>
</clipPath>
<clipPath id="clip13">
  <path d="M 395 0 L 396.199219 0 L 396.199219 268 L 395 268 Z M 395 0 "/>
</clipPath>
<clipPath id="clip14">
  <path d="M 38 265 L 396.199219 265 L 396.199219 268 L 38 268 Z M 38 265 "/>
</clipPath>
<clipPath id="clip15">
  <path d="M 38 0 L 396.199219 0 L 396.199219 1 L 38 1 Z M 38 0 "/>
</clipPath>
</defs>
<g id="surface1">
<g clip-path="url(#clip1)" clip-rule="nonzero">
<path style=" stroke:none;fill-rule:nonzero;fill:rgb(50.195312%,50.195312%,50.195312%);fill-opacity:1;" d="M 54.910156 153.914062 L 87.375 153.914062 L 87.375 58984.234375 L 54.910156 58984.234375 Z M 54.910156 153.914062 "/>
</g>
<g clip-path="url(#clip2)" clip-rule="nonzero">
<path style=" stroke:none;fill-rule:nonzero;fill:rgb(50.195312%,50.195312%,50.195312%);fill-opacity:1;" d="M 87.375 41.277344 L 119.839844 41.277344 L 119.839844 58984.234375 L 87.375 58984.234375 Z M 87.375 41.277344 "/>
</g>
<g clip-path="url(#clip3)" clip-rule="nonzero">
<path style=" stroke:none;fill-rule:nonzero;fill:rgb(50.195312%,50.195312%,50.195312%);fill-opacity:1;" d="M 119.839844 12.496094 L 152.308594 12.496094 L 152.308594 58984.234375 L 119.839844 58984.234375 Z M 119.839844 12.496094 "/>
</g>
<g clip-path="url(#clip4)" clip-rule="nonzero">
<path style=" stroke:none;fill-rule:nonzero;fill:rgb(50.195312%,50.195312%,50.195312%);fill-opacity:1;" d="M 152.308594 43.886719 L 184.773438 43.886719 L 184.773438 58984.234375 L 152.308594 58984.234375 Z M 152.308594 43.886719 "/>
</g>
<g clip-path="url(#clip5)" clip-rule="nonzero">
<path style=" stroke:none;fill-rule:nonzero;fill:rgb(50.195312%,50.195312%,50.195312%);fill-opacity:1;" d="M 184.773438 86.726562 L 217.238281 86.726562 L 217.238281 58984.234375 L 184.773438 58984.234375 Z M 184.773438 86.726562 "/>
</g>
<g clip-path="url(#clip6)" clip-rule="nonzero">
<path style=" stroke:none;fill-rule:nonzero;fill:rgb(50.195312%,50.195312%,50.195312%);fill-opacity:1;" d="M 217.238281 131.199219 L 249.703125 131.199219 L 249.703125 58984.234375 L 217.238281 58984.234375 Z M 217.238281 131.199219 "/>
</g>
<g clip-path="url(#clip7)" clip-rule="nonzero">
<path style=" stroke:none;fill-rule:nonzero;fill:rgb(50.195312%,50.195312%,50.195312%);fill-opacity:1;" d="M 249.703125 172.855469 L 282.167969 172.855469 L 282.167969 58984.234375 L 249.703125 58984.234375 Z M 249.703125 172.855469 "/>
</g>
<g clip-path="url(#clip8)" clip-rule="nonzero">
<path style=" stroke:none;fill-rule:nonzero;fill:rgb(50.195312%,50.195312%,50.195312%);fill-opacity:1;" d="M 282.167969 208.730469 L 314.632812 208.730469 L 314.632812 58984.234375 L 282.167969 58984.234375 Z M 282.167969 208.730469 "/>
</g>
<g clip-path="url(#clip9)" clip-rule="nonzero">
<path style=" stroke:none;fill-rule:nonzero;fill:rgb(50.195312%,50.195312%,50.195312%);fill-opacity:1;" d="M 314.632812 236.742188 L 347.101562 236.742188 L 347.101562 58984.234375 L 314.632812 58984.234375 Z M 314.632812 236.742188 "/>
</g>
<g clip-path="url(#clip10)" clip-rule="nonzero">
<path style=" stroke:none;fill-rule:nonzero;fill:rgb(50.195312%,50.195312%,50.195312%);fill-opacity:1;" d="M 347.101562 254.414062 L 379.566406 254.414062 L 379.566406 58984.234375 L 347.101562 58984.234375 Z M 347.101562 254.414062 "/>
</g>
<path style="fill:none;stroke-width:0.8;stroke-linecap:butt;stroke-linejoin:round;stroke:rgb(0%,0%,0%);stroke-opacity:1;stroke-miterlimit:4;" d="M 84.382812 266.511719 L 84.382812 270.011719 "/>
<path style=" stroke:none;fill-rule:nonzero;fill:rgb(0%,0%,0%);fill-opacity:1;" d="M 79.609375 274.46875 C 79.101562 274.46875 78.71875 274.71875 78.460938 275.21875 C 78.207031 275.71875 78.078125 276.46875 78.078125 277.472656 C 78.078125 278.472656 78.207031 279.222656 78.460938 279.722656 C 78.71875 280.222656 79.101562 280.472656 79.609375 280.472656 C 80.121094 280.472656 80.503906 280.222656 80.757812 279.722656 C 81.015625 279.222656 81.140625 278.472656 81.140625 277.472656 C 81.140625 276.46875 81.015625 275.71875 80.757812 275.21875 C 80.503906 274.71875 80.121094 274.46875 79.609375 274.46875 Z M 79.609375 273.6875 C 80.425781 273.6875 81.050781 274.011719 81.480469 274.660156 C 81.914062 275.304688 82.128906 276.242188 82.128906 277.472656 C 82.128906 278.699219 81.914062 279.636719 81.480469 280.285156 C 81.050781 280.929688 80.425781 281.253906 79.609375 281.253906 C 78.792969 281.253906 78.167969 280.929688 77.734375 280.285156 C 77.304688 279.636719 77.089844 278.699219 77.089844 277.472656 C 77.089844 276.242188 77.304688 275.304688 77.734375 274.660156 C 78.167969 274.011719 78.792969 273.6875 79.609375 273.6875 Z M 79.609375 273.6875 "/>
<path style=" stroke:none;fill-rule:nonzero;fill:rgb(0%,0%,0%);fill-opacity:1;" d="M 83.859375 279.871094 L 84.890625 279.871094 L 84.890625 281.109375 L 83.859375 281.109375 Z M 83.859375 279.871094 "/>
<path style=" stroke:none;fill-rule:nonzero;fill:rgb(0%,0%,0%);fill-opacity:1;" d="M 87.050781 273.820312 L 90.921875 273.820312 L 90.921875 274.652344 L 87.953125 274.652344 L 87.953125 276.4375 C 88.097656 276.386719 88.238281 276.351562 88.382812 276.328125 C 88.527344 276.304688 88.667969 276.292969 88.8125 276.292969 C 89.625 276.292969 90.269531 276.515625 90.746094 276.960938 C 91.222656 277.40625 91.460938 278.011719 91.460938 278.769531 C 91.460938 279.554688 91.214844 280.164062 90.726562 280.601562 C 90.238281 281.035156 89.550781 281.253906 88.660156 281.253906 C 88.355469 281.253906 88.042969 281.226562 87.726562 281.175781 C 87.410156 281.121094 87.082031 281.042969 86.742188 280.941406 L 86.742188 279.949219 C 87.035156 280.105469 87.339844 280.226562 87.652344 280.304688 C 87.964844 280.382812 88.292969 280.421875 88.640625 280.421875 C 89.203125 280.421875 89.652344 280.273438 89.980469 279.976562 C 90.308594 279.683594 90.472656 279.28125 90.472656 278.769531 C 90.472656 278.265625 90.308594 277.863281 89.980469 277.566406 C 89.652344 277.269531 89.203125 277.121094 88.640625 277.121094 C 88.378906 277.121094 88.113281 277.152344 87.851562 277.207031 C 87.589844 277.265625 87.324219 277.359375 87.050781 277.480469 Z M 87.050781 273.820312 "/>
<path style="fill:none;stroke-width:0.8;stroke-linecap:butt;stroke-linejoin:round;stroke:rgb(0%,0%,0%);stroke-opacity:1;stroke-miterlimit:4;" d="M 134.214844 266.511719 L 134.214844 270.011719 "/>
<path style=" stroke:none;fill-rule:nonzero;fill:rgb(0%,0%,0%);fill-opacity:1;" d="M 127.503906 280.28125 L 129.113281 280.28125 L 129.113281 274.71875 L 127.359375 275.070312 L 127.359375 274.171875 L 129.105469 273.820312 L 130.089844 273.820312 L 130.089844 280.28125 L 131.699219 280.28125 L 131.699219 281.109375 L 127.503906 281.109375 Z M 127.503906 280.28125 "/>
<path style=" stroke:none;fill-rule:nonzero;fill:rgb(0%,0%,0%);fill-opacity:1;" d="M 133.691406 279.871094 L 134.722656 279.871094 L 134.722656 281.109375 L 133.691406 281.109375 Z M 133.691406 279.871094 "/>
<path style=" stroke:none;fill-rule:nonzero;fill:rgb(0%,0%,0%);fill-opacity:1;" d="M 138.980469 274.46875 C 138.472656 274.46875 138.089844 274.71875 137.835938 275.21875 C 137.582031 275.71875 137.453125 276.46875 137.453125 277.472656 C 137.453125 278.472656 137.582031 279.222656 137.835938 279.722656 C 138.089844 280.222656 138.472656 280.472656 138.980469 280.472656 C 139.492188 280.472656 139.875 280.222656 140.128906 279.722656 C 140.386719 279.222656 140.515625 278.472656 140.515625 277.472656 C 140.515625 276.46875 140.386719 275.71875 140.128906 275.21875 C 139.875 274.71875 139.492188 274.46875 138.980469 274.46875 Z M 138.980469 273.6875 C 139.796875 273.6875 140.421875 274.011719 140.855469 274.660156 C 141.285156 275.304688 141.5 276.242188 141.5 277.472656 C 141.5 278.699219 141.285156 279.636719 140.855469 280.285156 C 140.421875 280.929688 139.796875 281.253906 138.980469 281.253906 C 138.164062 281.253906 137.539062 280.929688 137.109375 280.285156 C 136.675781 279.636719 136.460938 278.699219 136.460938 277.472656 C 136.460938 276.242188 136.675781 275.304688 137.109375 274.660156 C 137.539062 274.011719 138.164062 273.6875 138.980469 273.6875 Z M 138.980469 273.6875 "/>
<path style="fill:none;stroke-width:0.8;stroke-linecap:butt;stroke-linejoin:round;stroke:rgb(0%,0%,0%);stroke-opacity:1;stroke-miterlimit:4;" d="M 184.042969 266.511719 L 184.042969 270.011719 "/>
<path style=" stroke:none;fill-rule:nonzero;fill:rgb(0%,0%,0%);fill-opacity:1;" d="M 177.332031 280.28125 L 178.945312 280.28125 L 178.945312 274.71875 L 177.191406 275.070312 L 177.191406 274.171875 L 178.933594 273.820312 L 179.921875 273.820312 L 179.921875 280.28125 L 181.53125 280.28125 L 181.53125 281.109375 L 177.332031 281.109375 Z M 177.332031 280.28125 "/>
<path style=" stroke:none;fill-rule:nonzero;fill:rgb(0%,0%,0%);fill-opacity:1;" d="M 183.523438 279.871094 L 184.554688 279.871094 L 184.554688 281.109375 L 183.523438 281.109375 Z M 183.523438 279.871094 "/>
<path style=" stroke:none;fill-rule:nonzero;fill:rgb(0%,0%,0%);fill-opacity:1;" d="M 186.714844 273.820312 L 190.585938 273.820312 L 190.585938 274.652344 L 187.617188 274.652344 L 187.617188 276.4375 C 187.757812 276.386719 187.902344 276.351562 188.046875 276.328125 C 188.1875 276.304688 188.332031 276.292969 188.476562 276.292969 C 189.289062 276.292969 189.933594 276.515625 190.410156 276.960938 C 190.886719 277.40625 191.125 278.011719 191.125 278.769531 C 191.125 279.554688 190.878906 280.164062 190.390625 280.601562 C 189.902344 281.035156 189.214844 281.253906 188.324219 281.253906 C 188.019531 281.253906 187.707031 281.226562 187.390625 281.175781 C 187.070312 281.121094 186.746094 281.042969 186.40625 280.941406 L 186.40625 279.949219 C 186.699219 280.105469 187 280.226562 187.3125 280.304688 C 187.625 280.382812 187.957031 280.421875 188.304688 280.421875 C 188.867188 280.421875 189.3125 280.273438 189.640625 279.976562 C 189.972656 279.683594 190.136719 279.28125 190.136719 278.769531 C 190.136719 278.265625 189.972656 277.863281 189.640625 277.566406 C 189.3125 277.269531 188.867188 277.121094 188.304688 277.121094 C 188.039062 277.121094 187.777344 277.152344 187.515625 277.207031 C 187.253906 277.265625 186.988281 277.359375 186.714844 277.480469 Z M 186.714844 273.820312 "/>
<path style="fill:none;stroke-width:0.8;stroke-linecap:butt;stroke-linejoin:round;stroke:rgb(0%,0%,0%);stroke-opacity:1;stroke-miterlimit:4;" d="M 233.875 266.511719 L 233.875 270.011719 "/>
<path style=" stroke:none;fill-rule:nonzero;fill:rgb(0%,0%,0%);fill-opacity:1;" d="M 227.84375 280.28125 L 231.285156 280.28125 L 231.285156 281.109375 L 226.65625 281.109375 L 226.65625 280.28125 C 227.03125 279.894531 227.542969 279.375 228.1875 278.722656 C 228.835938 278.066406 229.242188 277.648438 229.40625 277.457031 C 229.722656 277.101562 229.941406 276.804688 230.066406 276.558594 C 230.191406 276.3125 230.257812 276.070312 230.257812 275.832031 C 230.257812 275.445312 230.121094 275.128906 229.847656 274.886719 C 229.578125 274.640625 229.222656 274.519531 228.785156 274.519531 C 228.476562 274.519531 228.148438 274.570312 227.804688 274.679688 C 227.464844 274.785156 227.097656 274.949219 226.707031 275.167969 L 226.707031 274.171875 C 227.101562 274.011719 227.472656 273.890625 227.820312 273.808594 C 228.164062 273.730469 228.480469 273.6875 228.765625 273.6875 C 229.523438 273.6875 230.125 273.878906 230.574219 274.253906 C 231.023438 274.632812 231.246094 275.136719 231.246094 275.769531 C 231.246094 276.066406 231.191406 276.351562 231.078125 276.621094 C 230.964844 276.890625 230.761719 277.207031 230.464844 277.570312 C 230.382812 277.664062 230.125 277.9375 229.6875 278.386719 C 229.253906 278.839844 228.636719 279.46875 227.84375 280.28125 Z M 227.84375 280.28125 "/>
<path style=" stroke:none;fill-rule:nonzero;fill:rgb(0%,0%,0%);fill-opacity:1;" d="M 233.355469 279.871094 L 234.386719 279.871094 L 234.386719 281.109375 L 233.355469 281.109375 Z M 233.355469 279.871094 "/>
<path style=" stroke:none;fill-rule:nonzero;fill:rgb(0%,0%,0%);fill-opacity:1;" d="M 238.644531 274.46875 C 238.136719 274.46875 237.753906 274.71875 237.5 275.21875 C 237.242188 275.71875 237.117188 276.46875 237.117188 277.472656 C 237.117188 278.472656 237.242188 279.222656 237.5 279.722656 C 237.753906 280.222656 238.136719 280.472656 238.644531 280.472656 C 239.15625 280.472656 239.539062 280.222656 239.792969 279.722656 C 240.050781 279.222656 240.179688 278.472656 240.179688 277.472656 C 240.179688 276.46875 240.050781 275.71875 239.792969 275.21875 C 239.539062 274.71875 239.15625 274.46875 238.644531 274.46875 Z M 238.644531 273.6875 C 239.460938 273.6875 240.085938 274.011719 240.515625 274.660156 C 240.949219 275.304688 241.164062 276.242188 241.164062 277.472656 C 241.164062 278.699219 240.949219 279.636719 240.515625 280.285156 C 240.085938 280.929688 239.460938 281.253906 238.644531 281.253906 C 237.828125 281.253906 237.203125 280.929688 236.773438 280.285156 C 236.339844 279.636719 236.125 278.699219 236.125 277.472656 C 236.125 276.242188 236.339844 275.304688 236.773438 274.660156 C 237.203125 274.011719 237.828125 273.6875 238.644531 273.6875 Z M 238.644531 273.6875 "/>
<path style="fill:none;stroke-width:0.8;stroke-linecap:butt;stroke-linejoin:round;stroke:rgb(0%,0%,0%);stroke-opacity:1;stroke-miterlimit:4;" d="M 283.707031 266.511719 L 283.707031 270.011719 "/>
<path style=" stroke:none;fill-rule:nonzero;fill:rgb(0%,0%,0%);fill-opacity:1;" d="M 277.675781 280.28125 L 281.117188 280.28125 L 281.117188 281.109375 L 276.488281 281.109375 L 276.488281 280.28125 C 276.863281 279.894531 277.375 279.375 278.019531 278.722656 C 278.664062 278.066406 279.070312 277.648438 279.238281 277.457031 C 279.554688 277.101562 279.773438 276.804688 279.898438 276.558594 C 280.023438 276.3125 280.085938 276.070312 280.085938 275.832031 C 280.085938 275.445312 279.953125 275.128906 279.679688 274.886719 C 279.40625 274.640625 279.054688 274.519531 278.617188 274.519531 C 278.308594 274.519531 277.980469 274.570312 277.636719 274.679688 C 277.296875 274.785156 276.929688 274.949219 276.539062 275.167969 L 276.539062 274.171875 C 276.933594 274.011719 277.304688 273.890625 277.648438 273.808594 C 277.996094 273.730469 278.3125 273.6875 278.597656 273.6875 C 279.355469 273.6875 279.957031 273.878906 280.40625 274.253906 C 280.855469 274.632812 281.078125 275.136719 281.078125 275.769531 C 281.078125 276.066406 281.023438 276.351562 280.910156 276.621094 C 280.796875 276.890625 280.59375 277.207031 280.296875 277.570312 C 280.214844 277.664062 279.957031 277.9375 279.519531 278.386719 C 279.085938 278.839844 278.46875 279.46875 277.675781 280.28125 Z M 277.675781 280.28125 "/>
<path style=" stroke:none;fill-rule:nonzero;fill:rgb(0%,0%,0%);fill-opacity:1;" d="M 283.1875 279.871094 L 284.21875 279.871094 L 284.21875 281.109375 L 283.1875 281.109375 Z M 283.1875 279.871094 "/>
<path style=" stroke:none;fill-rule:nonzero;fill:rgb(0%,0%,0%);fill-opacity:1;" d="M 286.378906 273.820312 L 290.25 273.820312 L 290.25 274.652344 L 287.28125 274.652344 L 287.28125 276.4375 C 287.421875 276.386719 287.566406 276.351562 287.707031 276.328125 C 287.851562 276.304688 287.996094 276.292969 288.140625 276.292969 C 288.953125 276.292969 289.597656 276.515625 290.074219 276.960938 C 290.546875 277.40625 290.785156 278.011719 290.785156 278.769531 C 290.785156 279.554688 290.542969 280.164062 290.054688 280.601562 C 289.566406 281.035156 288.875 281.253906 287.988281 281.253906 C 287.683594 281.253906 287.371094 281.226562 287.050781 281.175781 C 286.734375 281.121094 286.40625 281.042969 286.070312 280.941406 L 286.070312 279.949219 C 286.363281 280.105469 286.664062 280.226562 286.976562 280.304688 C 287.289062 280.382812 287.621094 280.421875 287.96875 280.421875 C 288.53125 280.421875 288.976562 280.273438 289.304688 279.976562 C 289.632812 279.683594 289.800781 279.28125 289.800781 278.769531 C 289.800781 278.265625 289.632812 277.863281 289.304688 277.566406 C 288.976562 277.269531 288.53125 277.121094 287.96875 277.121094 C 287.703125 277.121094 287.441406 277.152344 287.179688 277.207031 C 286.917969 277.265625 286.648438 277.359375 286.378906 277.480469 Z M 286.378906 273.820312 "/>
<path style="fill:none;stroke-width:0.8;stroke-linecap:butt;stroke-linejoin:round;stroke:rgb(0%,0%,0%);stroke-opacity:1;stroke-miterlimit:4;" d="M 333.539062 266.511719 L 333.539062 270.011719 "/>
<path style=" stroke:none;fill-rule:nonzero;fill:rgb(0%,0%,0%);fill-opacity:1;" d="M 329.644531 277.179688 C 330.117188 277.28125 330.484375 277.492188 330.75 277.808594 C 331.015625 278.128906 331.148438 278.523438 331.148438 278.992188 C 331.148438 279.710938 330.902344 280.265625 330.40625 280.660156 C 329.910156 281.054688 329.207031 281.253906 328.296875 281.253906 C 327.992188 281.253906 327.675781 281.222656 327.355469 281.160156 C 327.03125 281.101562 326.695312 281.011719 326.351562 280.890625 L 326.351562 279.9375 C 326.625 280.097656 326.921875 280.21875 327.246094 280.300781 C 327.574219 280.378906 327.914062 280.421875 328.269531 280.421875 C 328.886719 280.421875 329.359375 280.300781 329.683594 280.054688 C 330.003906 279.8125 330.167969 279.457031 330.167969 278.992188 C 330.167969 278.5625 330.015625 278.226562 329.714844 277.984375 C 329.414062 277.742188 328.996094 277.621094 328.460938 277.621094 L 327.609375 277.621094 L 327.609375 276.808594 L 328.5 276.808594 C 328.984375 276.808594 329.355469 276.710938 329.613281 276.519531 C 329.867188 276.324219 329.996094 276.046875 329.996094 275.679688 C 329.996094 275.308594 329.863281 275.019531 329.597656 274.820312 C 329.335938 274.617188 328.953125 274.519531 328.460938 274.519531 C 328.1875 274.519531 327.898438 274.546875 327.589844 274.605469 C 327.28125 274.664062 326.941406 274.757812 326.570312 274.878906 L 326.570312 274 C 326.945312 273.898438 327.296875 273.820312 327.621094 273.765625 C 327.949219 273.714844 328.257812 273.6875 328.546875 273.6875 C 329.296875 273.6875 329.886719 273.859375 330.324219 274.199219 C 330.761719 274.539062 330.980469 275 330.980469 275.578125 C 330.980469 275.980469 330.863281 276.324219 330.632812 276.601562 C 330.402344 276.878906 330.070312 277.070312 329.644531 277.179688 Z M 329.644531 277.179688 "/>
<path style=" stroke:none;fill-rule:nonzero;fill:rgb(0%,0%,0%);fill-opacity:1;" d="M 333.019531 279.871094 L 334.050781 279.871094 L 334.050781 281.109375 L 333.019531 281.109375 Z M 333.019531 279.871094 "/>
<path style=" stroke:none;fill-rule:nonzero;fill:rgb(0%,0%,0%);fill-opacity:1;" d="M 338.308594 274.46875 C 337.800781 274.46875 337.417969 274.71875 337.160156 275.21875 C 336.90625 275.71875 336.777344 276.46875 336.777344 277.472656 C 336.777344 278.472656 336.90625 279.222656 337.160156 279.722656 C 337.417969 280.222656 337.800781 280.472656 338.308594 280.472656 C 338.820312 280.472656 339.203125 280.222656 339.457031 279.722656 C 339.714844 279.222656 339.839844 278.472656 339.839844 277.472656 C 339.839844 276.46875 339.714844 275.71875 339.457031 275.21875 C 339.203125 274.71875 338.820312 274.46875 338.308594 274.46875 Z M 338.308594 273.6875 C 339.125 273.6875 339.75 274.011719 340.179688 274.660156 C 340.613281 275.304688 340.828125 276.242188 340.828125 277.472656 C 340.828125 278.699219 340.613281 279.636719 340.179688 280.285156 C 339.75 280.929688 339.125 281.253906 338.308594 281.253906 C 337.492188 281.253906 336.867188 280.929688 336.433594 280.285156 C 336.003906 279.636719 335.789062 278.699219 335.789062 277.472656 C 335.789062 276.242188 336.003906 275.304688 336.433594 274.660156 C 336.867188 274.011719 337.492188 273.6875 338.308594 273.6875 Z M 338.308594 273.6875 "/>
<path style="fill:none;stroke-width:0.8;stroke-linecap:butt;stroke-linejoin:round;stroke:rgb(0%,0%,0%);stroke-opacity:1;stroke-miterlimit:4;" d="M 383.371094 266.511719 L 383.371094 270.011719 "/>
<path style=" stroke:none;fill-rule:nonzero;fill:rgb(0%,0%,0%);fill-opacity:1;" d="M 379.476562 277.179688 C 379.949219 277.28125 380.316406 277.492188 380.582031 277.808594 C 380.847656 278.128906 380.980469 278.523438 380.980469 278.992188 C 380.980469 279.710938 380.734375 280.265625 380.238281 280.660156 C 379.742188 281.054688 379.039062 281.253906 378.128906 281.253906 C 377.824219 281.253906 377.507812 281.222656 377.183594 281.160156 C 376.863281 281.101562 376.527344 281.011719 376.183594 280.890625 L 376.183594 279.9375 C 376.457031 280.097656 376.753906 280.21875 377.078125 280.300781 C 377.40625 280.378906 377.746094 280.421875 378.101562 280.421875 C 378.71875 280.421875 379.191406 280.300781 379.511719 280.054688 C 379.835938 279.8125 380 279.457031 380 278.992188 C 380 278.5625 379.847656 278.226562 379.546875 277.984375 C 379.246094 277.742188 378.828125 277.621094 378.292969 277.621094 L 377.441406 277.621094 L 377.441406 276.808594 L 378.332031 276.808594 C 378.816406 276.808594 379.1875 276.710938 379.441406 276.519531 C 379.699219 276.324219 379.828125 276.046875 379.828125 275.679688 C 379.828125 275.308594 379.695312 275.019531 379.429688 274.820312 C 379.167969 274.617188 378.785156 274.519531 378.292969 274.519531 C 378.019531 274.519531 377.730469 274.546875 377.421875 274.605469 C 377.113281 274.664062 376.773438 274.757812 376.402344 274.878906 L 376.402344 274 C 376.777344 273.898438 377.128906 273.820312 377.453125 273.765625 C 377.78125 273.714844 378.089844 273.6875 378.378906 273.6875 C 379.128906 273.6875 379.71875 273.859375 380.15625 274.199219 C 380.59375 274.539062 380.808594 275 380.808594 275.578125 C 380.808594 275.980469 380.695312 276.324219 380.464844 276.601562 C 380.230469 276.878906 379.902344 277.070312 379.476562 277.179688 Z M 379.476562 277.179688 "/>
<path style=" stroke:none;fill-rule:nonzero;fill:rgb(0%,0%,0%);fill-opacity:1;" d="M 382.851562 279.871094 L 383.882812 279.871094 L 383.882812 281.109375 L 382.851562 281.109375 Z M 382.851562 279.871094 "/>
<path style=" stroke:none;fill-rule:nonzero;fill:rgb(0%,0%,0%);fill-opacity:1;" d="M 386.039062 273.820312 L 389.914062 273.820312 L 389.914062 274.652344 L 386.945312 274.652344 L 386.945312 276.4375 C 387.085938 276.386719 387.230469 276.351562 387.371094 276.328125 C 387.515625 276.304688 387.660156 276.292969 387.804688 276.292969 C 388.617188 276.292969 389.261719 276.515625 389.734375 276.960938 C 390.210938 277.40625 390.449219 278.011719 390.449219 278.769531 C 390.449219 279.554688 390.207031 280.164062 389.71875 280.601562 C 389.226562 281.035156 388.539062 281.253906 387.652344 281.253906 C 387.34375 281.253906 387.03125 281.226562 386.714844 281.175781 C 386.398438 281.121094 386.070312 281.042969 385.734375 280.941406 L 385.734375 279.949219 C 386.023438 280.105469 386.328125 280.226562 386.640625 280.304688 C 386.953125 280.382812 387.28125 280.421875 387.632812 280.421875 C 388.195312 280.421875 388.640625 280.273438 388.96875 279.976562 C 389.296875 279.683594 389.460938 279.28125 389.460938 278.769531 C 389.460938 278.265625 389.296875 277.863281 388.96875 277.566406 C 388.640625 277.269531 388.195312 277.121094 387.632812 277.121094 C 387.367188 277.121094 387.105469 277.152344 386.84375 277.207031 C 386.582031 277.265625 386.3125 277.359375 386.039062 277.480469 Z M 386.039062 273.820312 "/>
<path style=" stroke:none;fill-rule:nonzero;fill:rgb(0%,0%,0%);fill-opacity:1;" d="M 160.988281 287.191406 L 161.960938 287.191406 L 160.367188 289.027344 L 159.621094 289.027344 Z M 159.859375 289.71875 L 160.757812 289.71875 L 160.757812 295.1875 L 159.859375 295.1875 Z M 159.859375 289.71875 "/>
<path style=" stroke:none;fill-rule:nonzero;fill:rgb(0%,0%,0%);fill-opacity:1;" d="M 167.183594 291.886719 L 167.183594 295.1875 L 166.285156 295.1875 L 166.285156 291.917969 C 166.285156 291.398438 166.1875 291.011719 165.984375 290.753906 C 165.78125 290.5 165.480469 290.371094 165.074219 290.371094 C 164.589844 290.371094 164.207031 290.523438 163.925781 290.832031 C 163.648438 291.140625 163.507812 291.5625 163.507812 292.097656 L 163.507812 295.1875 L 162.605469 295.1875 L 162.605469 289.71875 L 163.507812 289.71875 L 163.507812 290.570312 C 163.722656 290.242188 163.976562 289.996094 164.265625 289.832031 C 164.558594 289.667969 164.894531 289.589844 165.277344 289.589844 C 165.902344 289.589844 166.378906 289.78125 166.699219 290.171875 C 167.023438 290.558594 167.183594 291.132812 167.183594 291.886719 Z M 167.183594 291.886719 "/>
<path style=" stroke:none;fill-rule:nonzero;fill:rgb(0%,0%,0%);fill-opacity:1;" d="M 172.574219 290.550781 L 172.574219 287.589844 L 173.472656 287.589844 L 173.472656 295.1875 L 172.574219 295.1875 L 172.574219 294.367188 C 172.386719 294.691406 172.148438 294.933594 171.859375 295.09375 C 171.570312 295.25 171.226562 295.332031 170.820312 295.332031 C 170.160156 295.332031 169.625 295.066406 169.207031 294.539062 C 168.792969 294.011719 168.585938 293.316406 168.585938 292.457031 C 168.585938 291.597656 168.792969 290.90625 169.207031 290.378906 C 169.625 289.851562 170.160156 289.589844 170.820312 289.589844 C 171.226562 289.589844 171.570312 289.667969 171.859375 289.824219 C 172.148438 289.984375 172.386719 290.222656 172.574219 290.550781 Z M 169.515625 292.457031 C 169.515625 293.121094 169.648438 293.636719 169.921875 294.011719 C 170.195312 294.390625 170.566406 294.578125 171.042969 294.578125 C 171.515625 294.578125 171.890625 294.390625 172.164062 294.011719 C 172.4375 293.636719 172.574219 293.121094 172.574219 292.457031 C 172.574219 291.796875 172.4375 291.28125 172.164062 290.902344 C 171.890625 290.527344 171.515625 290.339844 171.042969 290.339844 C 170.566406 290.339844 170.195312 290.527344 169.921875 290.902344 C 169.648438 291.28125 169.515625 291.796875 169.515625 292.457031 Z M 169.515625 292.457031 "/>
<path style=" stroke:none;fill-rule:nonzero;fill:rgb(0%,0%,0%);fill-opacity:1;" d="M 175.324219 289.71875 L 176.222656 289.71875 L 176.222656 295.1875 L 175.324219 295.1875 Z M 175.324219 287.589844 L 176.222656 287.589844 L 176.222656 288.730469 L 175.324219 288.730469 Z M 175.324219 287.589844 "/>
<path style=" stroke:none;fill-rule:nonzero;fill:rgb(0%,0%,0%);fill-opacity:1;" d="M 182.039062 289.929688 L 182.039062 290.769531 C 181.785156 290.628906 181.527344 290.523438 181.273438 290.453125 C 181.019531 290.382812 180.761719 290.347656 180.5 290.347656 C 179.917969 290.347656 179.464844 290.535156 179.140625 290.902344 C 178.820312 291.273438 178.660156 291.792969 178.660156 292.457031 C 178.660156 293.125 178.820312 293.644531 179.140625 294.015625 C 179.464844 294.382812 179.917969 294.566406 180.5 294.566406 C 180.761719 294.566406 181.019531 294.535156 181.273438 294.464844 C 181.527344 294.394531 181.785156 294.289062 182.039062 294.148438 L 182.039062 294.980469 C 181.785156 295.097656 181.527344 295.183594 181.257812 295.242188 C 180.992188 295.300781 180.707031 295.332031 180.402344 295.332031 C 179.578125 295.332031 178.921875 295.070312 178.4375 294.554688 C 177.953125 294.035156 177.710938 293.339844 177.710938 292.457031 C 177.710938 291.566406 177.957031 290.867188 178.445312 290.355469 C 178.9375 289.84375 179.609375 289.589844 180.460938 289.589844 C 180.738281 289.589844 181.007812 289.617188 181.269531 289.675781 C 181.535156 289.730469 181.789062 289.816406 182.039062 289.929688 Z M 182.039062 289.929688 "/>
<path style=" stroke:none;fill-rule:nonzero;fill:rgb(0%,0%,0%);fill-opacity:1;" d="M 188.277344 292.230469 L 188.277344 292.667969 L 184.148438 292.667969 C 184.1875 293.285156 184.375 293.757812 184.707031 294.082031 C 185.039062 294.40625 185.503906 294.566406 186.101562 294.566406 C 186.445312 294.566406 186.78125 294.527344 187.101562 294.441406 C 187.425781 294.355469 187.75 294.230469 188.070312 294.058594 L 188.070312 294.910156 C 187.746094 295.046875 187.414062 295.152344 187.078125 295.222656 C 186.738281 295.292969 186.394531 295.332031 186.046875 295.332031 C 185.175781 295.332031 184.484375 295.078125 183.972656 294.570312 C 183.464844 294.0625 183.210938 293.375 183.210938 292.507812 C 183.210938 291.613281 183.453125 290.902344 183.933594 290.378906 C 184.417969 289.851562 185.070312 289.589844 185.890625 289.589844 C 186.625 289.589844 187.207031 289.824219 187.636719 290.300781 C 188.0625 290.773438 188.277344 291.414062 188.277344 292.230469 Z M 187.378906 291.964844 C 187.375 291.472656 187.234375 291.082031 186.96875 290.789062 C 186.699219 290.496094 186.34375 290.347656 185.898438 290.347656 C 185.398438 290.347656 185 290.492188 184.695312 290.773438 C 184.394531 291.058594 184.222656 291.457031 184.175781 291.972656 Z M 187.378906 291.964844 "/>
<path style=" stroke:none;fill-rule:nonzero;fill:rgb(0%,0%,0%);fill-opacity:1;" d="M 196.53125 290.550781 L 196.53125 287.589844 L 197.429688 287.589844 L 197.429688 295.1875 L 196.53125 295.1875 L 196.53125 294.367188 C 196.339844 294.691406 196.101562 294.933594 195.8125 295.09375 C 195.527344 295.25 195.179688 295.332031 194.777344 295.332031 C 194.117188 295.332031 193.578125 295.066406 193.164062 294.539062 C 192.746094 294.011719 192.539062 293.316406 192.539062 292.457031 C 192.539062 291.597656 192.746094 290.90625 193.164062 290.378906 C 193.578125 289.851562 194.117188 289.589844 194.777344 289.589844 C 195.179688 289.589844 195.527344 289.667969 195.8125 289.824219 C 196.101562 289.984375 196.339844 290.222656 196.53125 290.550781 Z M 193.46875 292.457031 C 193.46875 293.121094 193.605469 293.636719 193.875 294.011719 C 194.148438 294.390625 194.523438 294.578125 194.996094 294.578125 C 195.472656 294.578125 195.847656 294.390625 196.117188 294.011719 C 196.394531 293.636719 196.53125 293.121094 196.53125 292.457031 C 196.53125 291.796875 196.394531 291.28125 196.117188 290.902344 C 195.847656 290.527344 195.472656 290.339844 194.996094 290.339844 C 194.523438 290.339844 194.148438 290.527344 193.875 290.902344 C 193.605469 291.28125 193.46875 291.796875 193.46875 292.457031 Z M 193.46875 292.457031 "/>
<path style=" stroke:none;fill-rule:nonzero;fill:rgb(0%,0%,0%);fill-opacity:1;" d="M 203.957031 292.230469 L 203.957031 292.667969 L 199.824219 292.667969 C 199.867188 293.285156 200.050781 293.757812 200.386719 294.082031 C 200.71875 294.40625 201.183594 294.566406 201.777344 294.566406 C 202.125 294.566406 202.457031 294.527344 202.78125 294.441406 C 203.105469 294.355469 203.429688 294.230469 203.746094 294.058594 L 203.746094 294.910156 C 203.425781 295.046875 203.09375 295.152344 202.753906 295.222656 C 202.417969 295.292969 202.074219 295.332031 201.726562 295.332031 C 200.851562 295.332031 200.160156 295.078125 199.652344 294.570312 C 199.144531 294.0625 198.886719 293.375 198.886719 292.507812 C 198.886719 291.613281 199.128906 290.902344 199.613281 290.378906 C 200.097656 289.851562 200.75 289.589844 201.570312 289.589844 C 202.304688 289.589844 202.886719 289.824219 203.316406 290.300781 C 203.742188 290.773438 203.957031 291.414062 203.957031 292.230469 Z M 203.058594 291.964844 C 203.050781 291.472656 202.914062 291.082031 202.644531 290.789062 C 202.378906 290.496094 202.023438 290.347656 201.578125 290.347656 C 201.078125 290.347656 200.675781 290.492188 200.375 290.773438 C 200.074219 291.058594 199.902344 291.457031 199.855469 291.972656 Z M 203.058594 291.964844 "/>
<g clip-path="url(#clip11)" clip-rule="nonzero">
<path style=" stroke:none;fill-rule:nonzero;fill:rgb(0%,0%,0%);fill-opacity:1;" d="M 209.480469 294.367188 L 209.480469 297.269531 L 208.574219 297.269531 L 208.574219 289.71875 L 209.480469 289.71875 L 209.480469 290.550781 C 209.667969 290.222656 209.90625 289.984375 210.195312 289.824219 C 210.484375 289.667969 210.828125 289.589844 211.226562 289.589844 C 211.890625 289.589844 212.429688 289.851562 212.847656 290.378906 C 213.261719 290.90625 213.46875 291.597656 213.46875 292.457031 C 213.46875 293.316406 213.261719 294.011719 212.847656 294.539062 C 212.429688 295.066406 211.890625 295.332031 211.226562 295.332031 C 210.828125 295.332031 210.484375 295.25 210.195312 295.09375 C 209.90625 294.933594 209.667969 294.691406 209.480469 294.367188 Z M 212.535156 292.457031 C 212.535156 291.796875 212.402344 291.28125 212.128906 290.902344 C 211.855469 290.527344 211.484375 290.339844 211.007812 290.339844 C 210.53125 290.339844 210.160156 290.527344 209.886719 290.902344 C 209.613281 291.28125 209.480469 291.796875 209.480469 292.457031 C 209.480469 293.121094 209.613281 293.636719 209.886719 294.011719 C 210.160156 294.390625 210.53125 294.578125 211.007812 294.578125 C 211.484375 294.578125 211.855469 294.390625 212.128906 294.011719 C 212.402344 293.636719 212.535156 293.121094 212.535156 292.457031 Z M 212.535156 292.457031 "/>
</g>
<path style=" stroke:none;fill-rule:nonzero;fill:rgb(0%,0%,0%);fill-opacity:1;" d="M 219.636719 292.230469 L 219.636719 292.667969 L 215.503906 292.667969 C 215.542969 293.285156 215.730469 293.757812 216.0625 294.082031 C 216.398438 294.40625 216.863281 294.566406 217.457031 294.566406 C 217.800781 294.566406 218.136719 294.527344 218.460938 294.441406 C 218.785156 294.355469 219.105469 294.230469 219.425781 294.058594 L 219.425781 294.910156 C 219.101562 295.046875 218.773438 295.152344 218.433594 295.222656 C 218.09375 295.292969 217.753906 295.332031 217.40625 295.332031 C 216.53125 295.332031 215.839844 295.078125 215.332031 294.570312 C 214.820312 294.0625 214.566406 293.375 214.566406 292.507812 C 214.566406 291.613281 214.808594 290.902344 215.292969 290.378906 C 215.773438 289.851562 216.425781 289.589844 217.25 289.589844 C 217.984375 289.589844 218.566406 289.824219 218.992188 290.300781 C 219.421875 290.773438 219.636719 291.414062 219.636719 292.230469 Z M 218.738281 291.964844 C 218.730469 291.472656 218.59375 291.082031 218.324219 290.789062 C 218.054688 290.496094 217.699219 290.347656 217.257812 290.347656 C 216.757812 290.347656 216.355469 290.492188 216.054688 290.773438 C 215.753906 291.058594 215.578125 291.457031 215.535156 291.972656 Z M 218.738281 291.964844 "/>
<path style=" stroke:none;fill-rule:nonzero;fill:rgb(0%,0%,0%);fill-opacity:1;" d="M 225.046875 289.929688 L 225.046875 290.769531 C 224.792969 290.628906 224.535156 290.523438 224.28125 290.453125 C 224.027344 290.382812 223.769531 290.347656 223.507812 290.347656 C 222.925781 290.347656 222.472656 290.535156 222.148438 290.902344 C 221.828125 291.273438 221.667969 291.792969 221.667969 292.457031 C 221.667969 293.125 221.828125 293.644531 222.148438 294.015625 C 222.472656 294.382812 222.925781 294.566406 223.507812 294.566406 C 223.769531 294.566406 224.027344 294.535156 224.28125 294.464844 C 224.535156 294.394531 224.792969 294.289062 225.046875 294.148438 L 225.046875 294.980469 C 224.792969 295.097656 224.535156 295.183594 224.265625 295.242188 C 224 295.300781 223.714844 295.332031 223.410156 295.332031 C 222.585938 295.332031 221.929688 295.070312 221.445312 294.554688 C 220.960938 294.035156 220.71875 293.339844 220.71875 292.457031 C 220.71875 291.566406 220.964844 290.867188 221.453125 290.355469 C 221.945312 289.84375 222.617188 289.589844 223.46875 289.589844 C 223.746094 289.589844 224.015625 289.617188 224.277344 289.675781 C 224.542969 289.730469 224.796875 289.816406 225.046875 289.929688 Z M 225.046875 289.929688 "/>
<path style=" stroke:none;fill-rule:nonzero;fill:rgb(0%,0%,0%);fill-opacity:1;" d="M 226.515625 293.03125 L 226.515625 289.71875 L 227.414062 289.71875 L 227.414062 292.996094 C 227.414062 293.515625 227.515625 293.902344 227.714844 294.160156 C 227.917969 294.421875 228.222656 294.550781 228.625 294.550781 C 229.109375 294.550781 229.492188 294.394531 229.773438 294.085938 C 230.054688 293.777344 230.195312 293.355469 230.195312 292.820312 L 230.195312 289.71875 L 231.09375 289.71875 L 231.09375 295.1875 L 230.195312 295.1875 L 230.195312 294.347656 C 229.980469 294.679688 229.726562 294.925781 229.4375 295.089844 C 229.148438 295.25 228.816406 295.332031 228.433594 295.332031 C 227.804688 295.332031 227.328125 295.136719 227.003906 294.746094 C 226.679688 294.355469 226.515625 293.78125 226.515625 293.03125 Z M 226.515625 293.03125 "/>
<path style=" stroke:none;fill-rule:nonzero;fill:rgb(0%,0%,0%);fill-opacity:1;" d="M 232.945312 287.589844 L 233.84375 287.589844 L 233.84375 295.1875 L 232.945312 295.1875 Z M 232.945312 287.589844 "/>
<path style=" stroke:none;fill-rule:nonzero;fill:rgb(0%,0%,0%);fill-opacity:1;" d="M 235.722656 289.71875 L 236.621094 289.71875 L 236.621094 295.1875 L 235.722656 295.1875 Z M 235.722656 287.589844 L 236.621094 287.589844 L 236.621094 288.730469 L 235.722656 288.730469 Z M 235.722656 287.589844 "/>
<path style=" stroke:none;fill-rule:nonzero;fill:rgb(0%,0%,0%);fill-opacity:1;" d="M 240.988281 292.441406 C 240.261719 292.441406 239.757812 292.523438 239.480469 292.6875 C 239.199219 292.855469 239.058594 293.136719 239.058594 293.539062 C 239.058594 293.855469 239.164062 294.109375 239.375 294.296875 C 239.585938 294.484375 239.871094 294.578125 240.230469 294.578125 C 240.730469 294.578125 241.128906 294.402344 241.429688 294.046875 C 241.730469 293.695312 241.882812 293.226562 241.882812 292.640625 L 241.882812 292.441406 Z M 242.78125 292.066406 L 242.78125 295.1875 L 241.882812 295.1875 L 241.882812 294.359375 C 241.675781 294.691406 241.421875 294.933594 241.113281 295.09375 C 240.808594 295.25 240.433594 295.332031 239.992188 295.332031 C 239.433594 295.332031 238.988281 295.171875 238.65625 294.859375 C 238.324219 294.542969 238.160156 294.125 238.160156 293.597656 C 238.160156 292.980469 238.367188 292.519531 238.777344 292.207031 C 239.191406 291.894531 239.804688 291.738281 240.621094 291.738281 L 241.882812 291.738281 L 241.882812 291.648438 C 241.882812 291.234375 241.746094 290.914062 241.472656 290.6875 C 241.203125 290.460938 240.820312 290.347656 240.328125 290.347656 C 240.015625 290.347656 239.710938 290.386719 239.414062 290.460938 C 239.121094 290.535156 238.835938 290.648438 238.5625 290.800781 L 238.5625 289.96875 C 238.890625 289.839844 239.207031 289.746094 239.519531 289.683594 C 239.828125 289.621094 240.128906 289.589844 240.421875 289.589844 C 241.214844 289.589844 241.804688 289.792969 242.195312 290.203125 C 242.585938 290.613281 242.78125 291.234375 242.78125 292.066406 Z M 242.78125 292.066406 "/>
<path style=" stroke:none;fill-rule:nonzero;fill:rgb(0%,0%,0%);fill-opacity:1;" d="M 247.800781 290.558594 C 247.699219 290.5 247.589844 290.457031 247.46875 290.429688 C 247.351562 290.402344 247.21875 290.386719 247.078125 290.386719 C 246.570312 290.386719 246.179688 290.554688 245.90625 290.882812 C 245.636719 291.214844 245.5 291.6875 245.5 292.308594 L 245.5 295.1875 L 244.597656 295.1875 L 244.597656 289.71875 L 245.5 289.71875 L 245.5 290.570312 C 245.6875 290.238281 245.933594 289.992188 246.238281 289.832031 C 246.539062 289.667969 246.90625 289.589844 247.339844 289.589844 C 247.402344 289.589844 247.472656 289.59375 247.546875 289.601562 C 247.621094 289.609375 247.703125 289.621094 247.792969 289.636719 Z M 247.800781 290.558594 "/>
<path style=" stroke:none;fill-rule:nonzero;fill:rgb(0%,0%,0%);fill-opacity:1;" d="M 248.742188 289.71875 L 249.640625 289.71875 L 249.640625 295.1875 L 248.742188 295.1875 Z M 248.742188 287.589844 L 249.640625 287.589844 L 249.640625 288.730469 L 248.742188 288.730469 Z M 248.742188 287.589844 "/>
<path style=" stroke:none;fill-rule:nonzero;fill:rgb(0%,0%,0%);fill-opacity:1;" d="M 255.117188 290.550781 L 255.117188 287.589844 L 256.015625 287.589844 L 256.015625 295.1875 L 255.117188 295.1875 L 255.117188 294.367188 C 254.929688 294.691406 254.691406 294.933594 254.402344 295.09375 C 254.117188 295.25 253.769531 295.332031 253.367188 295.332031 C 252.703125 295.332031 252.167969 295.066406 251.75 294.539062 C 251.335938 294.011719 251.128906 293.316406 251.128906 292.457031 C 251.128906 291.597656 251.335938 290.90625 251.75 290.378906 C 252.167969 289.851562 252.703125 289.589844 253.367188 289.589844 C 253.769531 289.589844 254.117188 289.667969 254.402344 289.824219 C 254.691406 289.984375 254.929688 290.222656 255.117188 290.550781 Z M 252.058594 292.457031 C 252.058594 293.121094 252.195312 293.636719 252.464844 294.011719 C 252.738281 294.390625 253.109375 294.578125 253.585938 294.578125 C 254.0625 294.578125 254.433594 294.390625 254.707031 294.011719 C 254.980469 293.636719 255.117188 293.121094 255.117188 292.457031 C 255.117188 291.796875 254.980469 291.28125 254.707031 290.902344 C 254.433594 290.527344 254.0625 290.339844 253.585938 290.339844 C 253.109375 290.339844 252.738281 290.527344 252.464844 290.902344 C 252.195312 291.28125 252.058594 291.796875 252.058594 292.457031 Z M 252.058594 292.457031 "/>
<path style=" stroke:none;fill-rule:nonzero;fill:rgb(0%,0%,0%);fill-opacity:1;" d="M 260.355469 292.441406 C 259.628906 292.441406 259.125 292.523438 258.84375 292.6875 C 258.5625 292.855469 258.425781 293.136719 258.425781 293.539062 C 258.425781 293.855469 258.527344 294.109375 258.738281 294.296875 C 258.949219 294.484375 259.234375 294.578125 259.597656 294.578125 C 260.09375 294.578125 260.496094 294.402344 260.796875 294.046875 C 261.097656 293.695312 261.246094 293.226562 261.246094 292.640625 L 261.246094 292.441406 Z M 262.144531 292.066406 L 262.144531 295.1875 L 261.246094 295.1875 L 261.246094 294.359375 C 261.042969 294.691406 260.785156 294.933594 260.480469 295.09375 C 260.175781 295.25 259.800781 295.332031 259.355469 295.332031 C 258.796875 295.332031 258.351562 295.171875 258.019531 294.859375 C 257.691406 294.542969 257.527344 294.125 257.527344 293.597656 C 257.527344 292.980469 257.730469 292.519531 258.144531 292.207031 C 258.554688 291.894531 259.167969 291.738281 259.988281 291.738281 L 261.246094 291.738281 L 261.246094 291.648438 C 261.246094 291.234375 261.113281 290.914062 260.839844 290.6875 C 260.566406 290.460938 260.1875 290.347656 259.695312 290.347656 C 259.382812 290.347656 259.078125 290.386719 258.78125 290.460938 C 258.484375 290.535156 258.199219 290.648438 257.925781 290.800781 L 257.925781 289.96875 C 258.253906 289.839844 258.574219 289.746094 258.882812 289.683594 C 259.191406 289.621094 259.492188 289.589844 259.785156 289.589844 C 260.578125 289.589844 261.167969 289.792969 261.558594 290.203125 C 261.949219 290.613281 262.144531 291.234375 262.144531 292.066406 Z M 262.144531 292.066406 "/>
<path style=" stroke:none;fill-rule:nonzero;fill:rgb(0%,0%,0%);fill-opacity:1;" d="M 267.59375 290.550781 L 267.59375 287.589844 L 268.492188 287.589844 L 268.492188 295.1875 L 267.59375 295.1875 L 267.59375 294.367188 C 267.40625 294.691406 267.167969 294.933594 266.878906 295.09375 C 266.589844 295.25 266.246094 295.332031 265.839844 295.332031 C 265.179688 295.332031 264.644531 295.066406 264.226562 294.539062 C 263.8125 294.011719 263.605469 293.316406 263.605469 292.457031 C 263.605469 291.597656 263.8125 290.90625 264.226562 290.378906 C 264.644531 289.851562 265.179688 289.589844 265.839844 289.589844 C 266.246094 289.589844 266.589844 289.667969 266.878906 289.824219 C 267.167969 289.984375 267.40625 290.222656 267.59375 290.550781 Z M 264.535156 292.457031 C 264.535156 293.121094 264.667969 293.636719 264.941406 294.011719 C 265.214844 294.390625 265.585938 294.578125 266.0625 294.578125 C 266.535156 294.578125 266.910156 294.390625 267.183594 294.011719 C 267.457031 293.636719 267.59375 293.121094 267.59375 292.457031 C 267.59375 291.796875 267.457031 291.28125 267.183594 290.902344 C 266.910156 290.527344 266.535156 290.339844 266.0625 290.339844 C 265.585938 290.339844 265.214844 290.527344 264.941406 290.902344 C 264.667969 291.28125 264.535156 291.796875 264.535156 292.457031 Z M 264.535156 292.457031 "/>
<path style=" stroke:none;fill-rule:nonzero;fill:rgb(0%,0%,0%);fill-opacity:1;" d="M 275.023438 292.230469 L 275.023438 292.667969 L 270.890625 292.667969 C 270.929688 293.285156 271.117188 293.757812 271.449219 294.082031 C 271.78125 294.40625 272.246094 294.566406 272.84375 294.566406 C 273.1875 294.566406 273.523438 294.527344 273.847656 294.441406 C 274.171875 294.355469 274.492188 294.230469 274.8125 294.058594 L 274.8125 294.910156 C 274.488281 295.046875 274.160156 295.152344 273.820312 295.222656 C 273.480469 295.292969 273.136719 295.332031 272.789062 295.332031 C 271.917969 295.332031 271.226562 295.078125 270.71875 294.570312 C 270.207031 294.0625 269.953125 293.375 269.953125 292.507812 C 269.953125 291.613281 270.195312 290.902344 270.679688 290.378906 C 271.160156 289.851562 271.8125 289.589844 272.632812 289.589844 C 273.371094 289.589844 273.953125 289.824219 274.378906 290.300781 C 274.808594 290.773438 275.023438 291.414062 275.023438 292.230469 Z M 274.125 291.964844 C 274.117188 291.472656 273.980469 291.082031 273.710938 290.789062 C 273.441406 290.496094 273.085938 290.347656 272.644531 290.347656 C 272.140625 290.347656 271.742188 290.492188 271.441406 290.773438 C 271.140625 291.058594 270.964844 291.457031 270.921875 291.972656 Z M 274.125 291.964844 "/>
<path style="fill:none;stroke-width:0.8;stroke-linecap:butt;stroke-linejoin:round;stroke:rgb(0%,0%,0%);stroke-opacity:1;stroke-miterlimit:4;" d="M 38.679688 213.378906 L 35.179688 213.378906 "/>
<path style=" stroke:none;fill-rule:nonzero;fill:rgb(0%,0%,0%);fill-opacity:1;" d="M 15.320312 216.277344 L 16.929688 216.277344 L 16.929688 210.714844 L 15.175781 211.066406 L 15.175781 210.167969 L 16.921875 209.816406 L 17.90625 209.816406 L 17.90625 216.277344 L 19.515625 216.277344 L 19.515625 217.109375 L 15.320312 217.109375 Z M 15.320312 216.277344 "/>
<path style=" stroke:none;fill-rule:nonzero;fill:rgb(0%,0%,0%);fill-opacity:1;" d="M 23.617188 210.46875 C 23.109375 210.46875 22.730469 210.71875 22.472656 211.21875 C 22.21875 211.71875 22.089844 212.46875 22.089844 213.472656 C 22.089844 214.46875 22.21875 215.21875 22.472656 215.71875 C 22.730469 216.21875 23.109375 216.46875 23.617188 216.46875 C 24.128906 216.46875 24.511719 216.21875 24.769531 215.71875 C 25.023438 215.21875 25.152344 214.46875 25.152344 213.472656 C 25.152344 212.46875 25.023438 211.71875 24.769531 211.21875 C 24.511719 210.71875 24.128906 210.46875 23.617188 210.46875 Z M 23.617188 209.6875 C 24.4375 209.6875 25.0625 210.011719 25.492188 210.65625 C 25.921875 211.304688 26.140625 212.242188 26.140625 213.472656 C 26.140625 214.699219 25.921875 215.636719 25.492188 216.28125 C 25.0625 216.929688 24.4375 217.25 23.617188 217.25 C 22.800781 217.25 22.179688 216.929688 21.746094 216.28125 C 21.316406 215.636719 21.101562 214.699219 21.101562 213.472656 C 21.101562 212.242188 21.316406 211.304688 21.746094 210.65625 C 22.179688 210.011719 22.800781 209.6875 23.617188 209.6875 Z M 23.617188 209.6875 "/>
<path style=" stroke:none;fill-rule:nonzero;fill:rgb(0%,0%,0%);fill-opacity:1;" d="M 27.765625 212.699219 L 28.894531 212.699219 L 28.894531 208.804688 L 27.667969 209.050781 L 27.667969 208.421875 L 28.886719 208.175781 L 29.578125 208.175781 L 29.578125 212.699219 L 30.707031 212.699219 L 30.707031 213.28125 L 27.765625 213.28125 Z M 27.765625 212.699219 "/>
<path style="fill:none;stroke-width:0.8;stroke-linecap:butt;stroke-linejoin:round;stroke:rgb(0%,0%,0%);stroke-opacity:1;stroke-miterlimit:4;" d="M 38.679688 154.664062 L 35.179688 154.664062 "/>
<path style=" stroke:none;fill-rule:nonzero;fill:rgb(0%,0%,0%);fill-opacity:1;" d="M 15.320312 157.558594 L 16.929688 157.558594 L 16.929688 151.996094 L 15.175781 152.347656 L 15.175781 151.449219 L 16.921875 151.097656 L 17.90625 151.097656 L 17.90625 157.558594 L 19.515625 157.558594 L 19.515625 158.386719 L 15.320312 158.386719 Z M 15.320312 157.558594 "/>
<path style=" stroke:none;fill-rule:nonzero;fill:rgb(0%,0%,0%);fill-opacity:1;" d="M 23.617188 151.746094 C 23.109375 151.746094 22.730469 151.996094 22.472656 152.496094 C 22.21875 152.996094 22.089844 153.746094 22.089844 154.75 C 22.089844 155.75 22.21875 156.5 22.472656 157 C 22.730469 157.5 23.109375 157.75 23.617188 157.75 C 24.128906 157.75 24.511719 157.5 24.769531 157 C 25.023438 156.5 25.152344 155.75 25.152344 154.75 C 25.152344 153.746094 25.023438 152.996094 24.769531 152.496094 C 24.511719 151.996094 24.128906 151.746094 23.617188 151.746094 Z M 23.617188 150.964844 C 24.4375 150.964844 25.0625 151.289062 25.492188 151.9375 C 25.921875 152.582031 26.140625 153.519531 26.140625 154.75 C 26.140625 155.976562 25.921875 156.914062 25.492188 157.5625 C 25.0625 158.207031 24.4375 158.53125 23.617188 158.53125 C 22.800781 158.53125 22.179688 158.207031 21.746094 157.5625 C 21.316406 156.914062 21.101562 155.976562 21.101562 154.75 C 21.101562 153.519531 21.316406 152.582031 21.746094 151.9375 C 22.179688 151.289062 22.800781 150.964844 23.617188 150.964844 Z M 23.617188 150.964844 "/>
<path style=" stroke:none;fill-rule:nonzero;fill:rgb(0%,0%,0%);fill-opacity:1;" d="M 28.242188 153.980469 L 30.652344 153.980469 L 30.652344 154.558594 L 27.410156 154.558594 L 27.410156 153.980469 C 27.671875 153.707031 28.03125 153.34375 28.480469 152.886719 C 28.933594 152.429688 29.21875 152.136719 29.335938 152.003906 C 29.554688 151.753906 29.710938 151.546875 29.796875 151.375 C 29.886719 151.199219 29.929688 151.03125 29.929688 150.867188 C 29.929688 150.59375 29.835938 150.375 29.644531 150.203125 C 29.453125 150.03125 29.207031 149.945312 28.902344 149.945312 C 28.683594 149.945312 28.457031 149.984375 28.214844 150.058594 C 27.976562 150.132812 27.71875 150.246094 27.445312 150.402344 L 27.445312 149.703125 C 27.722656 149.589844 27.984375 149.507812 28.222656 149.449219 C 28.464844 149.394531 28.6875 149.363281 28.886719 149.363281 C 29.417969 149.363281 29.839844 149.496094 30.152344 149.761719 C 30.464844 150.027344 30.625 150.378906 30.625 150.820312 C 30.625 151.03125 30.585938 151.230469 30.503906 151.417969 C 30.425781 151.605469 30.285156 151.828125 30.078125 152.082031 C 30.019531 152.148438 29.839844 152.339844 29.535156 152.65625 C 29.226562 152.972656 28.796875 153.414062 28.242188 153.980469 Z M 28.242188 153.980469 "/>
<path style="fill:none;stroke-width:0.8;stroke-linecap:butt;stroke-linejoin:round;stroke:rgb(0%,0%,0%);stroke-opacity:1;stroke-miterlimit:4;" d="M 38.679688 95.953125 L 35.179688 95.953125 "/>
<path style=" stroke:none;fill-rule:nonzero;fill:rgb(0%,0%,0%);fill-opacity:1;" d="M 15.320312 98.847656 L 16.929688 98.847656 L 16.929688 93.285156 L 15.175781 93.636719 L 15.175781 92.738281 L 16.921875 92.386719 L 17.90625 92.386719 L 17.90625 98.847656 L 19.515625 98.847656 L 19.515625 99.675781 L 15.320312 99.675781 Z M 15.320312 98.847656 "/>
<path style=" stroke:none;fill-rule:nonzero;fill:rgb(0%,0%,0%);fill-opacity:1;" d="M 23.617188 93.035156 C 23.109375 93.035156 22.730469 93.285156 22.472656 93.785156 C 22.21875 94.285156 22.089844 95.035156 22.089844 96.039062 C 22.089844 97.039062 22.21875 97.789062 22.472656 98.289062 C 22.730469 98.789062 23.109375 99.039062 23.617188 99.039062 C 24.128906 99.039062 24.511719 98.789062 24.769531 98.289062 C 25.023438 97.789062 25.152344 97.039062 25.152344 96.039062 C 25.152344 95.035156 25.023438 94.285156 24.769531 93.785156 C 24.511719 93.285156 24.128906 93.035156 23.617188 93.035156 Z M 23.617188 92.253906 C 24.4375 92.253906 25.0625 92.578125 25.492188 93.226562 C 25.921875 93.871094 26.140625 94.808594 26.140625 96.039062 C 26.140625 97.265625 25.921875 98.203125 25.492188 98.851562 C 25.0625 99.496094 24.4375 99.820312 23.617188 99.820312 C 22.800781 99.820312 22.179688 99.496094 21.746094 98.851562 C 21.316406 98.203125 21.101562 97.265625 21.101562 96.039062 C 21.101562 94.808594 21.316406 93.871094 21.746094 93.226562 C 22.179688 92.578125 22.800781 92.253906 23.617188 92.253906 Z M 23.617188 92.253906 "/>
<path style=" stroke:none;fill-rule:nonzero;fill:rgb(0%,0%,0%);fill-opacity:1;" d="M 29.738281 93.097656 C 30.070312 93.167969 30.328125 93.3125 30.511719 93.539062 C 30.699219 93.761719 30.792969 94.035156 30.792969 94.363281 C 30.792969 94.867188 30.617188 95.257812 30.273438 95.535156 C 29.925781 95.808594 29.433594 95.949219 28.796875 95.949219 C 28.582031 95.949219 28.359375 95.925781 28.132812 95.882812 C 27.90625 95.84375 27.671875 95.777344 27.433594 95.695312 L 27.433594 95.027344 C 27.625 95.140625 27.832031 95.222656 28.058594 95.28125 C 28.289062 95.335938 28.527344 95.367188 28.773438 95.367188 C 29.207031 95.367188 29.539062 95.28125 29.765625 95.109375 C 29.992188 94.9375 30.105469 94.691406 30.105469 94.363281 C 30.105469 94.0625 30 93.828125 29.789062 93.660156 C 29.578125 93.488281 29.285156 93.40625 28.910156 93.40625 L 28.3125 93.40625 L 28.3125 92.835938 L 28.9375 92.835938 C 29.273438 92.835938 29.535156 92.769531 29.714844 92.632812 C 29.894531 92.5 29.984375 92.300781 29.984375 92.046875 C 29.984375 91.785156 29.890625 91.585938 29.707031 91.445312 C 29.519531 91.304688 29.253906 91.234375 28.910156 91.234375 C 28.71875 91.234375 28.515625 91.253906 28.300781 91.296875 C 28.082031 91.335938 27.84375 91.398438 27.585938 91.488281 L 27.585938 90.871094 C 27.847656 90.796875 28.09375 90.742188 28.324219 90.707031 C 28.550781 90.671875 28.765625 90.652344 28.96875 90.652344 C 29.496094 90.652344 29.910156 90.773438 30.214844 91.011719 C 30.519531 91.25 30.671875 91.570312 30.671875 91.976562 C 30.671875 92.257812 30.589844 92.496094 30.429688 92.691406 C 30.265625 92.886719 30.039062 93.019531 29.738281 93.097656 Z M 29.738281 93.097656 "/>
<path style="fill:none;stroke-width:0.8;stroke-linecap:butt;stroke-linejoin:round;stroke:rgb(0%,0%,0%);stroke-opacity:1;stroke-miterlimit:4;" d="M 38.679688 37.242188 L 35.179688 37.242188 "/>
<path style=" stroke:none;fill-rule:nonzero;fill:rgb(0%,0%,0%);fill-opacity:1;" d="M 15.320312 40.144531 L 16.929688 40.144531 L 16.929688 34.582031 L 15.175781 34.933594 L 15.175781 34.035156 L 16.921875 33.683594 L 17.90625 33.683594 L 17.90625 40.144531 L 19.515625 40.144531 L 19.515625 40.972656 L 15.320312 40.972656 Z M 15.320312 40.144531 "/>
<path style=" stroke:none;fill-rule:nonzero;fill:rgb(0%,0%,0%);fill-opacity:1;" d="M 23.617188 34.332031 C 23.109375 34.332031 22.730469 34.582031 22.472656 35.082031 C 22.21875 35.582031 22.089844 36.332031 22.089844 37.335938 C 22.089844 38.332031 22.21875 39.082031 22.472656 39.582031 C 22.730469 40.082031 23.109375 40.332031 23.617188 40.332031 C 24.128906 40.332031 24.511719 40.082031 24.769531 39.582031 C 25.023438 39.082031 25.152344 38.332031 25.152344 37.335938 C 25.152344 36.332031 25.023438 35.582031 24.769531 35.082031 C 24.511719 34.582031 24.128906 34.332031 23.617188 34.332031 Z M 23.617188 33.550781 C 24.4375 33.550781 25.0625 33.875 25.492188 34.519531 C 25.921875 35.167969 26.140625 36.105469 26.140625 37.335938 C 26.140625 38.5625 25.921875 39.5 25.492188 40.144531 C 25.0625 40.792969 24.4375 41.113281 23.617188 41.113281 C 22.800781 41.113281 22.179688 40.792969 21.746094 40.144531 C 21.316406 39.5 21.101562 38.5625 21.101562 37.335938 C 21.101562 36.105469 21.316406 35.167969 21.746094 34.519531 C 22.179688 33.875 22.800781 33.550781 23.617188 33.550781 Z M 23.617188 33.550781 "/>
<path style=" stroke:none;fill-rule:nonzero;fill:rgb(0%,0%,0%);fill-opacity:1;" d="M 29.542969 32.640625 L 27.800781 35.367188 L 29.542969 35.367188 Z M 29.363281 32.039062 L 30.230469 32.039062 L 30.230469 35.367188 L 30.960938 35.367188 L 30.960938 35.941406 L 30.230469 35.941406 L 30.230469 37.144531 L 29.542969 37.144531 L 29.542969 35.941406 L 27.242188 35.941406 L 27.242188 35.273438 Z M 29.363281 32.039062 "/>
<path style="fill:none;stroke-width:0.6;stroke-linecap:butt;stroke-linejoin:round;stroke:rgb(0%,0%,0%);stroke-opacity:1;stroke-miterlimit:4;" d="M 38.679688 254.414062 L 36.679688 254.414062 "/>
<path style="fill:none;stroke-width:0.6;stroke-linecap:butt;stroke-linejoin:round;stroke:rgb(0%,0%,0%);stroke-opacity:1;stroke-miterlimit:4;" d="M 38.679688 244.078125 L 36.679688 244.078125 "/>
<path style="fill:none;stroke-width:0.6;stroke-linecap:butt;stroke-linejoin:round;stroke:rgb(0%,0%,0%);stroke-opacity:1;stroke-miterlimit:4;" d="M 38.679688 236.742188 L 36.679688 236.742188 "/>
<path style="fill:none;stroke-width:0.6;stroke-linecap:butt;stroke-linejoin:round;stroke:rgb(0%,0%,0%);stroke-opacity:1;stroke-miterlimit:4;" d="M 38.679688 231.050781 L 36.679688 231.050781 "/>
<path style="fill:none;stroke-width:0.6;stroke-linecap:butt;stroke-linejoin:round;stroke:rgb(0%,0%,0%);stroke-opacity:1;stroke-miterlimit:4;" d="M 38.679688 226.402344 L 36.679688 226.402344 "/>
<path style="fill:none;stroke-width:0.6;stroke-linecap:butt;stroke-linejoin:round;stroke:rgb(0%,0%,0%);stroke-opacity:1;stroke-miterlimit:4;" d="M 38.679688 222.472656 L 36.679688 222.472656 "/>
<path style="fill:none;stroke-width:0.6;stroke-linecap:butt;stroke-linejoin:round;stroke:rgb(0%,0%,0%);stroke-opacity:1;stroke-miterlimit:4;" d="M 38.679688 219.066406 L 36.679688 219.066406 "/>
<path style="fill:none;stroke-width:0.6;stroke-linecap:butt;stroke-linejoin:round;stroke:rgb(0%,0%,0%);stroke-opacity:1;stroke-miterlimit:4;" d="M 38.679688 216.066406 L 36.679688 216.066406 "/>
<path style="fill:none;stroke-width:0.6;stroke-linecap:butt;stroke-linejoin:round;stroke:rgb(0%,0%,0%);stroke-opacity:1;stroke-miterlimit:4;" d="M 38.679688 195.703125 L 36.679688 195.703125 "/>
<path style="fill:none;stroke-width:0.6;stroke-linecap:butt;stroke-linejoin:round;stroke:rgb(0%,0%,0%);stroke-opacity:1;stroke-miterlimit:4;" d="M 38.679688 185.363281 L 36.679688 185.363281 "/>
<path style="fill:none;stroke-width:0.6;stroke-linecap:butt;stroke-linejoin:round;stroke:rgb(0%,0%,0%);stroke-opacity:1;stroke-miterlimit:4;" d="M 38.679688 178.03125 L 36.679688 178.03125 "/>
<path style="fill:none;stroke-width:0.6;stroke-linecap:butt;stroke-linejoin:round;stroke:rgb(0%,0%,0%);stroke-opacity:1;stroke-miterlimit:4;" d="M 38.679688 172.339844 L 36.679688 172.339844 "/>
<path style="fill:none;stroke-width:0.6;stroke-linecap:butt;stroke-linejoin:round;stroke:rgb(0%,0%,0%);stroke-opacity:1;stroke-miterlimit:4;" d="M 38.679688 167.691406 L 36.679688 167.691406 "/>
<path style="fill:none;stroke-width:0.6;stroke-linecap:butt;stroke-linejoin:round;stroke:rgb(0%,0%,0%);stroke-opacity:1;stroke-miterlimit:4;" d="M 38.679688 163.761719 L 36.679688 163.761719 "/>
<path style="fill:none;stroke-width:0.6;stroke-linecap:butt;stroke-linejoin:round;stroke:rgb(0%,0%,0%);stroke-opacity:1;stroke-miterlimit:4;" d="M 38.679688 160.355469 L 36.679688 160.355469 "/>
<path style="fill:none;stroke-width:0.6;stroke-linecap:butt;stroke-linejoin:round;stroke:rgb(0%,0%,0%);stroke-opacity:1;stroke-miterlimit:4;" d="M 38.679688 157.351562 L 36.679688 157.351562 "/>
<path style="fill:none;stroke-width:0.6;stroke-linecap:butt;stroke-linejoin:round;stroke:rgb(0%,0%,0%);stroke-opacity:1;stroke-miterlimit:4;" d="M 38.679688 136.992188 L 36.679688 136.992188 "/>
<path style="fill:none;stroke-width:0.6;stroke-linecap:butt;stroke-linejoin:round;stroke:rgb(0%,0%,0%);stroke-opacity:1;stroke-miterlimit:4;" d="M 38.679688 126.652344 L 36.679688 126.652344 "/>
<path style="fill:none;stroke-width:0.6;stroke-linecap:butt;stroke-linejoin:round;stroke:rgb(0%,0%,0%);stroke-opacity:1;stroke-miterlimit:4;" d="M 38.679688 119.316406 L 36.679688 119.316406 "/>
<path style="fill:none;stroke-width:0.6;stroke-linecap:butt;stroke-linejoin:round;stroke:rgb(0%,0%,0%);stroke-opacity:1;stroke-miterlimit:4;" d="M 38.679688 113.628906 L 36.679688 113.628906 "/>
<path style="fill:none;stroke-width:0.6;stroke-linecap:butt;stroke-linejoin:round;stroke:rgb(0%,0%,0%);stroke-opacity:1;stroke-miterlimit:4;" d="M 38.679688 108.980469 L 36.679688 108.980469 "/>
<path style="fill:none;stroke-width:0.6;stroke-linecap:butt;stroke-linejoin:round;stroke:rgb(0%,0%,0%);stroke-opacity:1;stroke-miterlimit:4;" d="M 38.679688 105.046875 L 36.679688 105.046875 "/>
<path style="fill:none;stroke-width:0.6;stroke-linecap:butt;stroke-linejoin:round;stroke:rgb(0%,0%,0%);stroke-opacity:1;stroke-miterlimit:4;" d="M 38.679688 101.644531 L 36.679688 101.644531 "/>
<path style="fill:none;stroke-width:0.6;stroke-linecap:butt;stroke-linejoin:round;stroke:rgb(0%,0%,0%);stroke-opacity:1;stroke-miterlimit:4;" d="M 38.679688 98.640625 L 36.679688 98.640625 "/>
<path style="fill:none;stroke-width:0.6;stroke-linecap:butt;stroke-linejoin:round;stroke:rgb(0%,0%,0%);stroke-opacity:1;stroke-miterlimit:4;" d="M 38.679688 78.28125 L 36.679688 78.28125 "/>
<path style="fill:none;stroke-width:0.6;stroke-linecap:butt;stroke-linejoin:round;stroke:rgb(0%,0%,0%);stroke-opacity:1;stroke-miterlimit:4;" d="M 38.679688 67.941406 L 36.679688 67.941406 "/>
<path style="fill:none;stroke-width:0.6;stroke-linecap:butt;stroke-linejoin:round;stroke:rgb(0%,0%,0%);stroke-opacity:1;stroke-miterlimit:4;" d="M 38.679688 60.605469 L 36.679688 60.605469 "/>
<path style="fill:none;stroke-width:0.6;stroke-linecap:butt;stroke-linejoin:round;stroke:rgb(0%,0%,0%);stroke-opacity:1;stroke-miterlimit:4;" d="M 38.679688 54.914062 L 36.679688 54.914062 "/>
<path style="fill:none;stroke-width:0.6;stroke-linecap:butt;stroke-linejoin:round;stroke:rgb(0%,0%,0%);stroke-opacity:1;stroke-miterlimit:4;" d="M 38.679688 50.265625 L 36.679688 50.265625 "/>
<path style="fill:none;stroke-width:0.6;stroke-linecap:butt;stroke-linejoin:round;stroke:rgb(0%,0%,0%);stroke-opacity:1;stroke-miterlimit:4;" d="M 38.679688 46.335938 L 36.679688 46.335938 "/>
<path style="fill:none;stroke-width:0.6;stroke-linecap:butt;stroke-linejoin:round;stroke:rgb(0%,0%,0%);stroke-opacity:1;stroke-miterlimit:4;" d="M 38.679688 42.929688 L 36.679688 42.929688 "/>
<path style="fill:none;stroke-width:0.6;stroke-linecap:butt;stroke-linejoin:round;stroke:rgb(0%,0%,0%);stroke-opacity:1;stroke-miterlimit:4;" d="M 38.679688 39.929688 L 36.679688 39.929688 "/>
<path style="fill:none;stroke-width:0.6;stroke-linecap:butt;stroke-linejoin:round;stroke:rgb(0%,0%,0%);stroke-opacity:1;stroke-miterlimit:4;" d="M 38.679688 19.566406 L 36.679688 19.566406 "/>
<path style="fill:none;stroke-width:0.6;stroke-linecap:butt;stroke-linejoin:round;stroke:rgb(0%,0%,0%);stroke-opacity:1;stroke-miterlimit:4;" d="M 38.679688 9.230469 L 36.679688 9.230469 "/>
<path style="fill:none;stroke-width:0.6;stroke-linecap:butt;stroke-linejoin:round;stroke:rgb(0%,0%,0%);stroke-opacity:1;stroke-miterlimit:4;" d="M 38.679688 1.894531 L 36.679688 1.894531 "/>
<path style=" stroke:none;fill-rule:nonzero;fill:rgb(0%,0%,0%);fill-opacity:1;" d="M 4.695312 185.824219 L 8 185.824219 L 8 186.722656 L 4.726562 186.722656 C 4.207031 186.722656 3.820312 186.820312 3.566406 187.023438 C 3.308594 187.226562 3.179688 187.527344 3.179688 187.933594 C 3.179688 188.417969 3.335938 188.800781 3.644531 189.082031 C 3.953125 189.359375 4.375 189.5 4.90625 189.5 L 8 189.5 L 8 190.402344 L 2.53125 190.402344 L 2.53125 189.5 L 3.378906 189.5 C 3.050781 189.285156 2.804688 189.03125 2.640625 188.742188 C 2.480469 188.449219 2.398438 188.113281 2.398438 187.730469 C 2.398438 187.105469 2.59375 186.628906 2.980469 186.308594 C 3.371094 185.984375 3.941406 185.824219 4.695312 185.824219 Z M 4.695312 185.824219 "/>
<path style=" stroke:none;fill-rule:nonzero;fill:rgb(0%,0%,0%);fill-opacity:1;" d="M 5.839844 184.125 L 2.53125 184.125 L 2.53125 183.226562 L 5.804688 183.226562 C 6.324219 183.226562 6.710938 183.125 6.972656 182.921875 C 7.230469 182.722656 7.359375 182.417969 7.359375 182.015625 C 7.359375 181.53125 7.203125 181.148438 6.894531 180.867188 C 6.585938 180.582031 6.164062 180.441406 5.628906 180.441406 L 2.53125 180.441406 L 2.53125 179.542969 L 8 179.542969 L 8 180.441406 L 7.15625 180.441406 C 7.488281 180.660156 7.738281 180.914062 7.898438 181.203125 C 8.058594 181.488281 8.140625 181.824219 8.140625 182.203125 C 8.140625 182.832031 7.945312 183.308594 7.554688 183.636719 C 7.164062 183.960938 6.59375 184.125 5.839844 184.125 Z M 0 181.195312 L 0 180.222656 L 1.835938 181.8125 L 1.835938 182.5625 Z M 0 181.195312 "/>
<path style=" stroke:none;fill-rule:nonzero;fill:rgb(0%,0%,0%);fill-opacity:1;" d="M 3.578125 173.4375 C 3.175781 173.210938 2.878906 172.941406 2.6875 172.628906 C 2.496094 172.316406 2.398438 171.949219 2.398438 171.527344 C 2.398438 170.957031 2.597656 170.515625 2.996094 170.207031 C 3.394531 169.898438 3.960938 169.742188 4.695312 169.742188 L 8 169.742188 L 8 170.648438 L 4.726562 170.648438 C 4.203125 170.648438 3.8125 170.738281 3.5625 170.925781 C 3.308594 171.113281 3.179688 171.394531 3.179688 171.773438 C 3.179688 172.242188 3.335938 172.609375 3.644531 172.878906 C 3.953125 173.148438 4.375 173.285156 4.90625 173.285156 L 8 173.285156 L 8 174.1875 L 4.726562 174.1875 C 4.199219 174.1875 3.808594 174.28125 3.558594 174.464844 C 3.304688 174.652344 3.179688 174.9375 3.179688 175.324219 C 3.179688 175.785156 3.335938 176.148438 3.644531 176.421875 C 3.957031 176.691406 4.375 176.824219 4.90625 176.824219 L 8 176.824219 L 8 177.726562 L 2.53125 177.726562 L 2.53125 176.824219 L 3.378906 176.824219 C 3.042969 176.621094 2.796875 176.375 2.636719 176.085938 C 2.476562 175.800781 2.398438 175.460938 2.398438 175.066406 C 2.398438 174.667969 2.5 174.332031 2.703125 174.054688 C 2.902344 173.773438 3.195312 173.570312 3.578125 173.4375 Z M 3.578125 173.4375 "/>
<path style=" stroke:none;fill-rule:nonzero;fill:rgb(0%,0%,0%);fill-opacity:1;" d="M 5.039062 163.273438 L 5.476562 163.273438 L 5.476562 167.40625 C 6.097656 167.367188 6.566406 167.179688 6.890625 166.847656 C 7.214844 166.511719 7.378906 166.046875 7.378906 165.453125 C 7.378906 165.109375 7.335938 164.773438 7.25 164.449219 C 7.167969 164.125 7.039062 163.804688 6.871094 163.484375 L 7.71875 163.484375 C 7.855469 163.804688 7.960938 164.136719 8.03125 164.476562 C 8.105469 164.8125 8.140625 165.15625 8.140625 165.503906 C 8.140625 166.378906 7.886719 167.070312 7.378906 167.578125 C 6.871094 168.089844 6.183594 168.34375 5.316406 168.34375 C 4.421875 168.34375 3.710938 168.101562 3.1875 167.617188 C 2.660156 167.132812 2.398438 166.484375 2.398438 165.660156 C 2.398438 164.925781 2.636719 164.34375 3.109375 163.917969 C 3.582031 163.488281 4.226562 163.273438 5.039062 163.273438 Z M 4.773438 164.171875 C 4.285156 164.179688 3.894531 164.316406 3.601562 164.585938 C 3.304688 164.855469 3.160156 165.210938 3.160156 165.652344 C 3.160156 166.152344 3.300781 166.554688 3.585938 166.855469 C 3.867188 167.15625 4.265625 167.328125 4.78125 167.375 Z M 4.773438 164.171875 "/>
<path style=" stroke:none;fill-rule:nonzero;fill:rgb(0%,0%,0%);fill-opacity:1;" d="M 3.367188 158.632812 C 3.308594 158.730469 3.269531 158.84375 3.242188 158.960938 C 3.210938 159.078125 3.199219 159.210938 3.199219 159.351562 C 3.199219 159.863281 3.363281 160.25 3.695312 160.523438 C 4.023438 160.796875 4.5 160.929688 5.117188 160.929688 L 8 160.929688 L 8 161.835938 L 2.53125 161.835938 L 2.53125 160.929688 L 3.378906 160.929688 C 3.046875 160.742188 2.800781 160.496094 2.640625 160.195312 C 2.480469 159.890625 2.398438 159.523438 2.398438 159.089844 C 2.398438 159.027344 2.402344 158.960938 2.410156 158.882812 C 2.417969 158.808594 2.429688 158.726562 2.445312 158.636719 Z M 3.367188 158.632812 "/>
<path style=" stroke:none;fill-rule:nonzero;fill:rgb(0%,0%,0%);fill-opacity:1;" d="M 3.160156 155.574219 C 3.160156 156.054688 3.347656 156.433594 3.722656 156.714844 C 4.097656 156.996094 4.613281 157.136719 5.269531 157.136719 C 5.921875 157.136719 6.4375 156.996094 6.8125 156.71875 C 7.191406 156.4375 7.378906 156.058594 7.378906 155.574219 C 7.378906 155.09375 7.191406 154.714844 6.8125 154.433594 C 6.433594 154.15625 5.917969 154.015625 5.269531 154.015625 C 4.621094 154.015625 4.105469 154.15625 3.726562 154.433594 C 3.347656 154.714844 3.160156 155.09375 3.160156 155.574219 Z M 2.398438 155.574219 C 2.398438 154.792969 2.652344 154.179688 3.160156 153.730469 C 3.667969 153.285156 4.371094 153.0625 5.269531 153.0625 C 6.164062 153.0625 6.867188 153.285156 7.375 153.730469 C 7.886719 154.179688 8.140625 154.792969 8.140625 155.574219 C 8.140625 156.355469 7.886719 156.972656 7.375 157.417969 C 6.867188 157.859375 6.164062 158.082031 5.269531 158.082031 C 4.371094 158.082031 3.667969 157.859375 3.160156 157.417969 C 2.652344 156.972656 2.398438 156.355469 2.398438 155.574219 Z M 2.398438 155.574219 "/>
<path style=" stroke:none;fill-rule:nonzero;fill:rgb(0%,0%,0%);fill-opacity:1;" d="M 3.359375 144.796875 L 0.398438 144.796875 L 0.398438 143.898438 L 8 143.898438 L 8 144.796875 L 7.179688 144.796875 C 7.503906 144.984375 7.746094 145.222656 7.902344 145.511719 C 8.0625 145.800781 8.140625 146.144531 8.140625 146.550781 C 8.140625 147.210938 7.878906 147.746094 7.351562 148.164062 C 6.820312 148.578125 6.128906 148.785156 5.269531 148.785156 C 4.410156 148.785156 3.714844 148.578125 3.1875 148.164062 C 2.660156 147.746094 2.398438 147.210938 2.398438 146.550781 C 2.398438 146.144531 2.476562 145.800781 2.636719 145.511719 C 2.792969 145.222656 3.035156 144.984375 3.359375 144.796875 Z M 5.269531 147.855469 C 5.929688 147.855469 6.449219 147.722656 6.824219 147.449219 C 7.199219 147.175781 7.386719 146.804688 7.386719 146.328125 C 7.386719 145.855469 7.199219 145.480469 6.824219 145.207031 C 6.449219 144.933594 5.929688 144.796875 5.269531 144.796875 C 4.609375 144.796875 4.089844 144.933594 3.714844 145.207031 C 3.339844 145.480469 3.148438 145.855469 3.148438 146.328125 C 3.148438 146.804688 3.339844 147.175781 3.714844 147.449219 C 4.089844 147.722656 4.609375 147.855469 5.269531 147.855469 Z M 5.269531 147.855469 "/>
<path style=" stroke:none;fill-rule:nonzero;fill:rgb(0%,0%,0%);fill-opacity:1;" d="M 5.039062 137.367188 L 5.476562 137.367188 L 5.476562 141.5 C 6.097656 141.460938 6.566406 141.273438 6.890625 140.941406 C 7.214844 140.609375 7.378906 140.144531 7.378906 139.546875 C 7.378906 139.203125 7.335938 138.867188 7.25 138.542969 C 7.167969 138.21875 7.039062 137.898438 6.871094 137.578125 L 7.71875 137.578125 C 7.855469 137.902344 7.960938 138.230469 8.03125 138.570312 C 8.105469 138.910156 8.140625 139.253906 8.140625 139.601562 C 8.140625 140.472656 7.886719 141.164062 7.378906 141.671875 C 6.871094 142.183594 6.183594 142.4375 5.316406 142.4375 C 4.421875 142.4375 3.710938 142.195312 3.1875 141.710938 C 2.660156 141.230469 2.398438 140.578125 2.398438 139.757812 C 2.398438 139.019531 2.636719 138.4375 3.109375 138.011719 C 3.582031 137.582031 4.226562 137.367188 5.039062 137.367188 Z M 4.773438 138.265625 C 4.285156 138.273438 3.894531 138.410156 3.601562 138.679688 C 3.304688 138.949219 3.160156 139.304688 3.160156 139.746094 C 3.160156 140.25 3.300781 140.648438 3.585938 140.949219 C 3.867188 141.25 4.265625 141.425781 4.78125 141.46875 Z M 4.773438 138.265625 "/>
<path style=" stroke:none;fill-rule:nonzero;fill:rgb(0%,0%,0%);fill-opacity:1;" d="M 3.160156 130.597656 C 3.160156 131.078125 3.347656 131.460938 3.722656 131.738281 C 4.097656 132.019531 4.613281 132.160156 5.269531 132.160156 C 5.921875 132.160156 6.4375 132.019531 6.8125 131.742188 C 7.191406 131.464844 7.378906 131.082031 7.378906 130.597656 C 7.378906 130.117188 7.191406 129.738281 6.8125 129.460938 C 6.433594 129.179688 5.917969 129.039062 5.269531 129.039062 C 4.621094 129.039062 4.105469 129.179688 3.726562 129.460938 C 3.347656 129.738281 3.160156 130.117188 3.160156 130.597656 Z M 2.398438 130.597656 C 2.398438 129.816406 2.652344 129.203125 3.160156 128.757812 C 3.667969 128.308594 4.371094 128.085938 5.269531 128.085938 C 6.164062 128.085938 6.867188 128.308594 7.375 128.757812 C 7.886719 129.203125 8.140625 129.816406 8.140625 130.597656 C 8.140625 131.382812 7.886719 131.996094 7.375 132.441406 C 6.867188 132.886719 6.164062 133.105469 5.269531 133.105469 C 4.371094 133.105469 3.667969 132.886719 3.160156 132.441406 C 2.652344 131.996094 2.398438 131.382812 2.398438 130.597656 Z M 2.398438 130.597656 "/>
<path style=" stroke:none;fill-rule:nonzero;fill:rgb(0%,0%,0%);fill-opacity:1;" d="M 2.738281 122.660156 L 3.578125 122.660156 C 3.4375 122.917969 3.332031 123.171875 3.265625 123.425781 C 3.195312 123.679688 3.160156 123.9375 3.160156 124.199219 C 3.160156 124.78125 3.34375 125.234375 3.714844 125.558594 C 4.082031 125.878906 4.601562 126.042969 5.269531 126.042969 C 5.9375 126.042969 6.457031 125.878906 6.824219 125.558594 C 7.195312 125.234375 7.378906 124.78125 7.378906 124.199219 C 7.378906 123.9375 7.34375 123.679688 7.273438 123.425781 C 7.203125 123.171875 7.097656 122.917969 6.957031 122.660156 L 7.789062 122.660156 C 7.90625 122.914062 7.992188 123.171875 8.050781 123.441406 C 8.109375 123.710938 8.140625 123.996094 8.140625 124.296875 C 8.140625 125.121094 7.882812 125.777344 7.363281 126.261719 C 6.847656 126.746094 6.148438 126.988281 5.269531 126.988281 C 4.378906 126.988281 3.675781 126.742188 3.164062 126.253906 C 2.652344 125.761719 2.398438 125.089844 2.398438 124.238281 C 2.398438 123.960938 2.425781 123.691406 2.484375 123.429688 C 2.539062 123.164062 2.625 122.910156 2.738281 122.660156 Z M 2.738281 122.660156 "/>
<path style=" stroke:none;fill-rule:nonzero;fill:rgb(0%,0%,0%);fill-opacity:1;" d="M 3.160156 118.980469 C 3.160156 119.460938 3.347656 119.84375 3.722656 120.125 C 4.097656 120.402344 4.613281 120.542969 5.269531 120.542969 C 5.921875 120.542969 6.4375 120.40625 6.8125 120.125 C 7.191406 119.847656 7.378906 119.464844 7.378906 118.980469 C 7.378906 118.503906 7.191406 118.121094 6.8125 117.84375 C 6.433594 117.5625 5.917969 117.421875 5.269531 117.421875 C 4.621094 117.421875 4.105469 117.5625 3.726562 117.84375 C 3.347656 118.121094 3.160156 118.503906 3.160156 118.980469 Z M 2.398438 118.980469 C 2.398438 118.199219 2.652344 117.585938 3.160156 117.140625 C 3.667969 116.695312 4.371094 116.46875 5.269531 116.46875 C 6.164062 116.46875 6.867188 116.695312 7.375 117.140625 C 7.886719 117.585938 8.140625 118.199219 8.140625 118.980469 C 8.140625 119.765625 7.886719 120.378906 7.375 120.824219 C 6.867188 121.269531 6.164062 121.492188 5.269531 121.492188 C 4.371094 121.492188 3.667969 121.269531 3.160156 120.824219 C 2.652344 120.378906 2.398438 119.765625 2.398438 118.980469 Z M 2.398438 118.980469 "/>
<path style=" stroke:none;fill-rule:nonzero;fill:rgb(0%,0%,0%);fill-opacity:1;" d="M 3.367188 111.8125 C 3.308594 111.914062 3.269531 112.023438 3.242188 112.144531 C 3.210938 112.261719 3.199219 112.390625 3.199219 112.535156 C 3.199219 113.042969 3.363281 113.433594 3.695312 113.707031 C 4.023438 113.976562 4.5 114.113281 5.117188 114.113281 L 8 114.113281 L 8 115.015625 L 2.53125 115.015625 L 2.53125 114.113281 L 3.378906 114.113281 C 3.046875 113.921875 2.800781 113.675781 2.640625 113.375 C 2.480469 113.074219 2.398438 112.703125 2.398438 112.269531 C 2.398438 112.210938 2.402344 112.140625 2.410156 112.066406 C 2.417969 111.992188 2.429688 111.910156 2.445312 111.816406 Z M 3.367188 111.8125 "/>
<path style=" stroke:none;fill-rule:nonzero;fill:rgb(0%,0%,0%);fill-opacity:1;" d="M 3.367188 107.703125 C 3.308594 107.804688 3.269531 107.914062 3.242188 108.03125 C 3.210938 108.152344 3.199219 108.28125 3.199219 108.425781 C 3.199219 108.933594 3.363281 109.324219 3.695312 109.59375 C 4.023438 109.867188 4.5 110.003906 5.117188 110.003906 L 8 110.003906 L 8 110.90625 L 2.53125 110.90625 L 2.53125 110.003906 L 3.378906 110.003906 C 3.046875 109.8125 2.800781 109.566406 2.640625 109.265625 C 2.480469 108.960938 2.398438 108.59375 2.398438 108.160156 C 2.398438 108.101562 2.402344 108.03125 2.410156 107.957031 C 2.417969 107.882812 2.429688 107.796875 2.445312 107.707031 Z M 3.367188 107.703125 "/>
<path style=" stroke:none;fill-rule:nonzero;fill:rgb(0%,0%,0%);fill-opacity:1;" d="M 5.039062 102.085938 L 5.476562 102.085938 L 5.476562 106.21875 C 6.097656 106.175781 6.566406 105.992188 6.890625 105.65625 C 7.214844 105.324219 7.378906 104.859375 7.378906 104.265625 C 7.378906 103.917969 7.335938 103.585938 7.25 103.261719 C 7.167969 102.9375 7.039062 102.613281 6.871094 102.296875 L 7.71875 102.296875 C 7.855469 102.617188 7.960938 102.949219 8.03125 103.289062 C 8.105469 103.625 8.140625 103.96875 8.140625 104.316406 C 8.140625 105.191406 7.886719 105.882812 7.378906 106.390625 C 6.871094 106.898438 6.183594 107.15625 5.316406 107.15625 C 4.421875 107.15625 3.710938 106.914062 3.1875 106.429688 C 2.660156 105.945312 2.398438 105.292969 2.398438 104.472656 C 2.398438 103.738281 2.636719 103.15625 3.109375 102.726562 C 3.582031 102.300781 4.226562 102.085938 5.039062 102.085938 Z M 4.773438 102.984375 C 4.285156 102.992188 3.894531 103.128906 3.601562 103.398438 C 3.304688 103.664062 3.160156 104.019531 3.160156 104.464844 C 3.160156 104.964844 3.300781 105.367188 3.585938 105.667969 C 3.867188 105.96875 4.265625 106.140625 4.78125 106.1875 Z M 0 104.890625 L 0 104.164062 L 1.835938 102.96875 L 1.835938 103.648438 L 0.640625 104.527344 L 1.835938 105.40625 L 1.835938 106.085938 Z M 0 104.890625 "/>
<path style=" stroke:none;fill-rule:nonzero;fill:rgb(0%,0%,0%);fill-opacity:1;" d="M 4.695312 96.066406 L 8 96.066406 L 8 96.964844 L 4.726562 96.964844 C 4.207031 96.964844 3.820312 97.0625 3.566406 97.265625 C 3.308594 97.46875 3.179688 97.769531 3.179688 98.175781 C 3.179688 98.660156 3.335938 99.042969 3.644531 99.324219 C 3.953125 99.601562 4.375 99.742188 4.90625 99.742188 L 8 99.742188 L 8 100.644531 L 2.53125 100.644531 L 2.53125 99.742188 L 3.378906 99.742188 C 3.050781 99.527344 2.804688 99.273438 2.640625 98.984375 C 2.480469 98.691406 2.398438 98.355469 2.398438 97.972656 C 2.398438 97.347656 2.59375 96.871094 2.980469 96.550781 C 3.371094 96.226562 3.941406 96.066406 4.695312 96.066406 Z M 4.695312 96.066406 "/>
<path style=" stroke:none;fill-rule:nonzero;fill:rgb(0%,0%,0%);fill-opacity:1;" d="M 2.738281 90.335938 L 3.578125 90.335938 C 3.4375 90.59375 3.332031 90.847656 3.265625 91.101562 C 3.195312 91.355469 3.160156 91.613281 3.160156 91.875 C 3.160156 92.457031 3.34375 92.910156 3.714844 93.234375 C 4.082031 93.554688 4.601562 93.71875 5.269531 93.71875 C 5.9375 93.71875 6.457031 93.554688 6.824219 93.234375 C 7.195312 92.910156 7.378906 92.457031 7.378906 91.875 C 7.378906 91.613281 7.34375 91.355469 7.273438 91.101562 C 7.203125 90.847656 7.097656 90.59375 6.957031 90.335938 L 7.789062 90.335938 C 7.90625 90.589844 7.992188 90.847656 8.050781 91.117188 C 8.109375 91.386719 8.140625 91.671875 8.140625 91.972656 C 8.140625 92.796875 7.882812 93.453125 7.363281 93.9375 C 6.847656 94.421875 6.148438 94.664062 5.269531 94.664062 C 4.378906 94.664062 3.675781 94.417969 3.164062 93.929688 C 2.652344 93.4375 2.398438 92.765625 2.398438 91.914062 C 2.398438 91.636719 2.425781 91.367188 2.484375 91.105469 C 2.539062 90.839844 2.625 90.585938 2.738281 90.335938 Z M 2.738281 90.335938 "/>
<path style=" stroke:none;fill-rule:nonzero;fill:rgb(0%,0%,0%);fill-opacity:1;" d="M 2.53125 88.777344 L 2.53125 87.878906 L 8 87.878906 L 8 88.777344 Z M 0.398438 88.777344 L 0.398438 87.878906 L 1.539062 87.878906 L 1.539062 88.777344 Z M 0.398438 88.777344 "/>
<path style=" stroke:none;fill-rule:nonzero;fill:rgb(0%,0%,0%);fill-opacity:1;" d="M 5.25 83.511719 C 5.25 84.238281 5.332031 84.742188 5.5 85.019531 C 5.664062 85.300781 5.949219 85.441406 6.347656 85.441406 C 6.667969 85.441406 6.921875 85.335938 7.109375 85.125 C 7.292969 84.914062 7.386719 84.628906 7.386719 84.269531 C 7.386719 83.769531 7.210938 83.371094 6.859375 83.070312 C 6.503906 82.769531 6.035156 82.617188 5.449219 82.617188 L 5.25 82.617188 Z M 4.878906 81.71875 L 8 81.71875 L 8 82.617188 L 7.167969 82.617188 C 7.5 82.824219 7.746094 83.078125 7.902344 83.382812 C 8.0625 83.691406 8.140625 84.066406 8.140625 84.507812 C 8.140625 85.066406 7.984375 85.511719 7.667969 85.84375 C 7.355469 86.175781 6.933594 86.339844 6.40625 86.339844 C 5.792969 86.339844 5.328125 86.132812 5.015625 85.722656 C 4.703125 85.308594 4.546875 84.695312 4.546875 83.878906 L 4.546875 82.617188 L 4.457031 82.617188 C 4.042969 82.617188 3.722656 82.753906 3.5 83.023438 C 3.273438 83.296875 3.160156 83.679688 3.160156 84.171875 C 3.160156 84.484375 3.195312 84.789062 3.273438 85.085938 C 3.347656 85.378906 3.460938 85.664062 3.609375 85.9375 L 2.777344 85.9375 C 2.652344 85.609375 2.554688 85.289062 2.492188 84.980469 C 2.429688 84.671875 2.398438 84.371094 2.398438 84.078125 C 2.398438 83.285156 2.605469 82.695312 3.015625 82.304688 C 3.421875 81.914062 4.042969 81.71875 4.878906 81.71875 Z M 4.878906 81.71875 "/>
<path style=" stroke:none;fill-rule:nonzero;fill:rgb(0%,0%,0%);fill-opacity:1;" d="M 2.691406 76.382812 L 3.539062 76.382812 C 3.410156 76.636719 3.3125 76.898438 3.25 77.175781 C 3.183594 77.445312 3.148438 77.730469 3.148438 78.023438 C 3.148438 78.46875 3.21875 78.804688 3.355469 79.027344 C 3.492188 79.25 3.695312 79.363281 3.96875 79.363281 C 4.179688 79.363281 4.34375 79.28125 4.460938 79.121094 C 4.578125 78.964844 4.691406 78.640625 4.800781 78.160156 L 4.867188 77.851562 C 5.003906 77.214844 5.199219 76.761719 5.445312 76.492188 C 5.695312 76.222656 6.042969 76.089844 6.488281 76.089844 C 6.996094 76.089844 7.398438 76.289062 7.695312 76.691406 C 7.992188 77.09375 8.140625 77.648438 8.140625 78.351562 C 8.140625 78.644531 8.113281 78.949219 8.054688 79.265625 C 7.996094 79.582031 7.910156 79.917969 7.796875 80.269531 L 6.871094 80.269531 C 7.042969 79.9375 7.171875 79.609375 7.257812 79.289062 C 7.34375 78.964844 7.386719 78.648438 7.386719 78.332031 C 7.386719 77.90625 7.316406 77.582031 7.171875 77.355469 C 7.027344 77.128906 6.820312 77.011719 6.558594 77.011719 C 6.3125 77.011719 6.128906 77.09375 5.996094 77.261719 C 5.867188 77.421875 5.742188 77.785156 5.621094 78.339844 L 5.546875 78.652344 C 5.429688 79.210938 5.25 79.613281 5.007812 79.859375 C 4.765625 80.105469 4.433594 80.230469 4.007812 80.230469 C 3.496094 80.230469 3.097656 80.046875 2.820312 79.683594 C 2.539062 79.320312 2.398438 78.800781 2.398438 78.128906 C 2.398438 77.800781 2.421875 77.488281 2.472656 77.195312 C 2.519531 76.902344 2.59375 76.628906 2.691406 76.382812 Z M 2.691406 76.382812 "/>
<g clip-path="url(#clip12)" clip-rule="nonzero">
<path style="fill:none;stroke-width:1.5;stroke-linecap:square;stroke-linejoin:round;stroke:rgb(0%,0%,0%);stroke-opacity:1;stroke-miterlimit:4;" d="M 210.675781 266.511719 L 210.675781 0.398438 "/>
</g>
<path style="fill:none;stroke-width:0.8;stroke-linecap:square;stroke-linejoin:miter;stroke:rgb(0%,0%,0%);stroke-opacity:1;stroke-miterlimit:4;" d="M 38.679688 266.511719 L 38.679688 0.398438 "/>
<g clip-path="url(#clip13)" clip-rule="nonzero">
<path style="fill:none;stroke-width:0.8;stroke-linecap:square;stroke-linejoin:miter;stroke:rgb(0%,0%,0%);stroke-opacity:1;stroke-miterlimit:4;" d="M 395.796875 266.511719 L 395.796875 0.398438 "/>
</g>
<g clip-path="url(#clip14)" clip-rule="nonzero">
<path style="fill:none;stroke-width:0.8;stroke-linecap:square;stroke-linejoin:miter;stroke:rgb(0%,0%,0%);stroke-opacity:1;stroke-miterlimit:4;" d="M 38.679688 266.511719 L 395.796875 266.511719 "/>
</g>
<g clip-path="url(#clip15)" clip-rule="nonzero">
<path style="fill:none;stroke-width:0.8;stroke-linecap:square;stroke-linejoin:miter;stroke:rgb(0%,0%,0%);stroke-opacity:1;stroke-miterlimit:4;" d="M 38.679688 0.398438 L 395.796875 0.398438 "/>
</g>
<path style=" stroke:none;fill-rule:nonzero;fill:rgb(0%,0%,0%);fill-opacity:1;" d="M 222.425781 38.082031 L 222.425781 36.46875 L 216.863281 36.46875 L 217.214844 38.222656 L 216.316406 38.222656 L 215.964844 36.480469 L 215.964844 35.492188 L 222.425781 35.492188 L 222.425781 33.882812 L 223.257812 33.882812 L 223.257812 38.082031 Z M 222.425781 38.082031 "/>
<path style=" stroke:none;fill-rule:nonzero;fill:rgb(0%,0%,0%);fill-opacity:1;" d="M 222.015625 30.859375 L 223.257812 30.859375 L 223.257812 31.890625 L 222.015625 31.890625 Z M 222.015625 30.859375 "/>
<path style=" stroke:none;fill-rule:nonzero;fill:rgb(0%,0%,0%);fill-opacity:1;" d="M 215.964844 28.960938 L 215.964844 24.273438 L 216.386719 24.273438 L 223.257812 26.917969 L 223.257812 27.949219 L 216.796875 25.457031 L 216.796875 28.960938 Z M 215.964844 28.960938 "/>
<path style=" stroke:none;fill-rule:nonzero;fill:rgb(0%,0%,0%);fill-opacity:1;" d="M 215.964844 22.597656 L 215.964844 17.910156 L 216.386719 17.910156 L 223.257812 20.558594 L 223.257812 21.585938 L 216.796875 19.097656 L 216.796875 22.597656 Z M 215.964844 22.597656 "/>
</g>
</svg>
