<?xml version="1.0" encoding="UTF-8" standalone="no"?>
<!-- Created with Inkscape (http://www.inkscape.org/) -->

<svg
   xmlns:dc="http://purl.org/dc/elements/1.1/"
   xmlns:cc="http://creativecommons.org/ns#"
   xmlns:rdf="http://www.w3.org/1999/02/22-rdf-syntax-ns#"
   xmlns:svg="http://www.w3.org/2000/svg"
   xmlns="http://www.w3.org/2000/svg"
   xmlns:sodipodi="http://sodipodi.sourceforge.net/DTD/sodipodi-0.dtd"
   xmlns:inkscape="http://www.inkscape.org/namespaces/inkscape"
   width="108.44389mm"
   height="69.320831mm"
   viewBox="0 0 108.44389 69.320831"
   version="1.1"
   id="svg488"
   inkscape:version="0.92.5 (2060ec1f9f, 2020-04-08)"
   sodipodi:docname="Fig01_pt.svg">
  <defs
     id="defs482">
    <clipPath
       clipPathUnits="userSpaceOnUse"
       id="clipPath200">
      <path
         d="m 157.75,396.503 h 308.199 v 197.25 H 157.75 Z"
         id="path198"
         inkscape:connector-curvature="0"
         style="clip-rule:evenodd" />
    </clipPath>
  </defs>
  <sodipodi:namedview
     id="base"
     pagecolor="#ffffff"
     bordercolor="#666666"
     borderopacity="1.0"
     inkscape:pageopacity="0.0"
     inkscape:pageshadow="2"
     inkscape:zoom="2.3854797"
     inkscape:cx="172.62962"
     inkscape:cy="100.36674"
     inkscape:document-units="mm"
     inkscape:current-layer="layer1"
     showgrid="false"
     fit-margin-top="0"
     fit-margin-left="0"
     fit-margin-right="0"
     fit-margin-bottom="0"
     inkscape:window-width="1364"
     inkscape:window-height="726"
     inkscape:window-x="0"
     inkscape:window-y="20"
     inkscape:window-maximized="1" />
  <metadata
     id="metadata485">
    <rdf:RDF>
      <cc:Work
         rdf:about="">
        <dc:format>image/svg+xml</dc:format>
        <dc:type
           rdf:resource="http://purl.org/dc/dcmitype/StillImage" />
        <dc:title />
      </cc:Work>
    </rdf:RDF>
  </metadata>
  <g
     inkscape:label="Layer 1"
     inkscape:groupmode="layer"
     id="layer1"
     transform="translate(-41.162568,-71.229292)">
    <g
       id="g204"
       transform="matrix(0.35277777,0,0,-0.35277777,-14.629236,280.55104)" />
    <path
       d="m 107.07909,119.20707 c 0,-1.55222 -0.26458,-3.08681 -0.74083,-4.55083 -0.47625,-1.48167 -1.1818,-2.8575 -2.08139,-4.10987 -0.91722,-1.25236 -2.02847,-2.36361 -3.26319,-3.26319 -1.270002,-0.89958 -2.645835,-1.60514 -4.127502,-2.09903 -0.282222,-0.0882 -0.564444,-0.17639 -0.846666,-0.24694 l -3.704167,14.26986 v 0 0 0 0 0 z"
       style="fill:#4572a7;fill-opacity:1;fill-rule:evenodd;stroke:none;stroke-width:0.35277778"
       id="path208"
       inkscape:connector-curvature="0" />
    <path
       d="m 96.019512,104.93721 c -1.217084,-0.3175 -2.451806,-0.45861 -3.704167,-0.45861 -1.552222,0 -3.086806,0.2293 -4.550833,0.70555 -0.194028,0.0706 -0.388056,0.14111 -0.582084,0.21167 l 5.132917,13.81125 v 0 0 0 z"
       style="fill:#aa4643;fill-opacity:1;fill-rule:evenodd;stroke:none;stroke-width:0.35277778"
       id="path210"
       inkscape:connector-curvature="0" />
    <path
       d="m 87.182428,105.39582 c -1.393472,0.51153 -2.716388,1.23472 -3.898194,2.15194 l 9.031111,11.65931 v 0 z"
       style="fill:#89a54e;fill-opacity:1;fill-rule:evenodd;stroke:none;stroke-width:0.35277778"
       id="path212"
       inkscape:connector-curvature="0" />
    <path
       d="m 83.284234,107.54776 c -1.093611,0.86431 -2.081389,1.86973 -2.910417,2.99861 -0.899583,1.25237 -1.605138,2.6282 -2.099027,4.10987 -0.47625,1.46402 -0.705556,2.99861 -0.705556,4.55083 0,1.53458 0.229306,3.0868 0.705556,4.55083 0.493889,1.46403 1.199444,2.8575 2.099027,4.10986 0.917223,1.25236 2.010834,2.34597 3.263195,3.2632 0.687916,0.49389 1.411111,0.93486 2.169583,1.30527 l 6.50875,-13.22916 v 0 0 0 0 0 0 0 z"
       style="fill:#71588f;fill-opacity:1;fill-rule:evenodd;stroke:none;stroke-width:0.35277778"
       id="path214"
       inkscape:connector-curvature="0" />
    <path
       d="m 85.806595,132.43623 c 0.635,0.29987 1.287639,0.56445 1.957917,0.77612 1.464027,0.47625 2.998611,0.72319 4.550833,0.72319 1.552222,0 3.086805,-0.24694 4.550833,-0.72319 1.481667,-0.47625 2.8575,-1.18181 4.127502,-2.08139 1.23472,-0.91723 2.34597,-2.01084 3.26319,-3.2632 0.89959,-1.25236 1.60514,-2.64583 2.08139,-4.10986 0.17639,-0.52916 0.3175,-1.04069 0.42333,-1.5875 l -14.446245,-2.96333 v 0 0 0 0 0 0 0 z"
       style="fill:#4198af;fill-opacity:1;fill-rule:evenodd;stroke:none;stroke-width:0.35277778"
       id="path216"
       inkscape:connector-curvature="0" />
    <path
       d="m 106.76159,122.1704 c 0.19403,-0.97014 0.3175,-1.97555 0.3175,-2.96333 H 92.315345 v 0 z"
       style="fill:#db843d;fill-opacity:1;fill-rule:evenodd;stroke:none;stroke-width:0.35277778"
       id="path218"
       inkscape:connector-curvature="0" />
    <g
       id="g220"
       transform="matrix(0.23283333,0,0,-0.23283333,30.23866,218.59941)">
      <text
         transform="matrix(1,0,0,-1,316,468.503)"
         style="font-variant:normal;font-weight:normal;font-size:11px;font-family:Caladea;-inkscape-font-specification:Caladea-Regular;writing-mode:lr-tb;fill:#000000;fill-opacity:1;fill-rule:nonzero;stroke:none"
         id="text224">
        <tspan
           x="0 5.9949999 11.99"
           y="0"
           sodipodi:role="line"
           id="tspan222">21%</tspan>
      </text>
    </g>
    <g
       id="g226"
       transform="matrix(0.23283333,0,0,-0.23283333,19.249876,218.56853)">
      <text
         transform="matrix(1,0,0,-1,300.8,492.803)"
         style="font-variant:normal;font-weight:normal;font-size:11px;font-family:Caladea;-inkscape-font-specification:Caladea-Regular;writing-mode:lr-tb;fill:#000000;fill-opacity:1;fill-rule:nonzero;stroke:none"
         id="text230">
        <tspan
           x="0 5.9949999 11.99"
           y="0"
           sodipodi:role="line"
           id="tspan228">10%</tspan>
      </text>
    </g>
    <g
       id="g232"
       transform="matrix(0.23283333,0,0,-0.23283333,16.79385,219.03038)">
      <text
         transform="matrix(1,0,0,-1,280.8,487.103)"
         style="font-variant:normal;font-weight:normal;font-size:11px;font-family:Caladea;-inkscape-font-specification:Caladea-Regular;writing-mode:lr-tb;fill:#000000;fill-opacity:1;fill-rule:nonzero;stroke:none"
         id="text236">
        <tspan
           x="0 5.9949999"
           y="0"
           sodipodi:role="line"
           id="tspan234">5%</tspan>
      </text>
    </g>
    <g
       id="g238"
       transform="matrix(0.23283333,0,0,-0.23283333,10.730805,227.06853)">
      <text
         transform="matrix(1,0,0,-1,263.4,450.603)"
         style="font-variant:normal;font-weight:normal;font-size:11px;font-family:Caladea;-inkscape-font-specification:Caladea-Regular;writing-mode:lr-tb;fill:#000000;fill-opacity:1;fill-rule:nonzero;stroke:none"
         id="text242">
        <tspan
           x="0 5.9949999 11.99"
           y="0"
           sodipodi:role="line"
           id="tspan240">32%</tspan>
      </text>
    </g>
    <g
       id="g244"
       transform="matrix(0.23283333,0,0,-0.23283333,23.691479,235.83156)">
      <text
         transform="matrix(1,0,0,-1,307.7,428.403)"
         style="font-variant:normal;font-weight:normal;font-size:11px;font-family:Caladea;-inkscape-font-specification:Caladea-Regular;writing-mode:lr-tb;fill:#000000;fill-opacity:1;fill-rule:nonzero;stroke:none"
         id="text248">
        <tspan
           x="0 5.9949999 11.891"
           y="0"
           sodipodi:role="line"
           id="tspan246">29%</tspan>
      </text>
    </g>
    <g
       id="g250"
       transform="matrix(0.23283333,0,0,-0.23283333,26.738791,224.85955)">
      <text
         transform="matrix(1,0,0,-1,349,442.203)"
         style="font-variant:normal;font-weight:normal;font-size:11px;font-family:Caladea;-inkscape-font-specification:Caladea-Regular;writing-mode:lr-tb;fill:#000000;fill-opacity:1;fill-rule:nonzero;stroke:none"
         id="text254">
        <tspan
           x="0 5.9949999"
           y="0"
           sodipodi:role="line"
           id="tspan252">3%</tspan>
      </text>
    </g>
    <g
       id="g256"
       transform="matrix(0.35277777,0,0,-0.35277777,-14.629236,280.55104)">
      <text
         transform="matrix(1,0,0,-1,252,568.903)"
         style="font-variant:normal;font-weight:bold;font-size:13.19999981px;font-family:Caladea;-inkscape-font-specification:Caladea-Bold;writing-mode:lr-tb;fill:#000000;fill-opacity:1;fill-rule:nonzero;stroke:none"
         id="text260">
        <tspan
           x="0 7.4843998 11.9724 20.156401 28.340401 35.824799 41.830799 44.813999 52.998001 60.482399 63.465599 71.649597 79.134003 85.139999 93.323997 101.508 105.996 112.002"
           y="0"
           sodipodi:role="line"
           id="tspan258">Linhas de pesquisa</tspan>
      </text>
    </g>
    <path
       d="m 47.865346,88.533041 h -1.146528 v -2.310694 h 2.310695 v 2.310694 z"
       style="fill:#4572a7;fill-opacity:1;fill-rule:evenodd;stroke:none;stroke-width:0.35277778"
       id="path262"
       inkscape:connector-curvature="0" />
    <path
       d="m 100.44687,88.533041 h -1.146525 v -2.310694 h 2.310695 v 2.310694 z"
       style="fill:#aa4643;fill-opacity:1;fill-rule:evenodd;stroke:none;stroke-width:0.35277778"
       id="path264"
       inkscape:connector-curvature="0" />
    <path
       d="m 47.865346,94.018736 h -1.146528 v -2.310695 h 2.310695 v 2.310695 z"
       style="fill:#89a54e;fill-opacity:1;fill-rule:evenodd;stroke:none;stroke-width:0.35277778"
       id="path266"
       inkscape:connector-curvature="0" />
    <path
       d="m 100.44687,94.018736 h -1.146525 v -2.310695 h 2.310695 v 2.310695 z"
       style="fill:#71588f;fill-opacity:1;fill-rule:evenodd;stroke:none;stroke-width:0.35277778"
       id="path268"
       inkscape:connector-curvature="0" />
    <path
       d="m 47.865346,99.50443 h -1.146528 v -2.310694 h 2.310695 v 2.310694 z"
       style="fill:#4198af;fill-opacity:1;fill-rule:evenodd;stroke:none;stroke-width:0.35277778"
       id="path270"
       inkscape:connector-curvature="0" />
    <path
       d="m 100.44687,99.50443 h -1.146525 v -2.310694 h 2.310695 v 2.310694 z"
       style="fill:#db843d;fill-opacity:1;fill-rule:evenodd;stroke:none;stroke-width:0.35277778"
       id="path272"
       inkscape:connector-curvature="0" />
    <g
       id="g274"
       transform="matrix(0.23283333,0,0,-0.23283333,8.498815,214.90767)">
      <text
         transform="matrix(1,0,0,-1,183.3,543.503)"
         style="font-variant:normal;font-weight:normal;font-size:11px;font-family:Caladea;-inkscape-font-specification:Caladea-Regular;writing-mode:lr-tb;fill:#000000;fill-opacity:1;fill-rule:nonzero;stroke:none"
         id="text278">
        <tspan
           x="0 5.9840002 11.88 14.168 16.368 22.351999 27.555 31.339001 35.838001 41.041 50.039001 55.242001 61.237 64.932999 70.917 73.216003 78.418999 83.611 88.913002 94.808998 100.111 109.109 112.112 117.304"
           y="0"
           sodipodi:role="line"
           id="tspan276">L1. Letramento acadêmico</tspan>
      </text>
    </g>
    <g
       id="g280"
       transform="matrix(0.23283333,0,0,-0.23283333,26.379211,214.90767)">
      <text
         transform="matrix(1,0,0,-1,332.3,543.503)"
         style="font-variant:normal;font-weight:normal;font-size:11px;font-family:Caladea;-inkscape-font-specification:Caladea-Regular;writing-mode:lr-tb;fill:#000000;fill-opacity:1;fill-rule:nonzero;stroke:none"
         id="text284">
        <tspan
           x="0 5.9840002 11.979 14.179 16.478001 22.462 27.665001 31.361 35.860001 41.161999 50.061001 55.362999 61.358002 65.054001 71.038002 73.237999 78.441002 82.940002 88.231003 94.214996 97.207001 102.41"
           y="0"
           sodipodi:role="line"
           id="tspan282">L2. Letramento escolar</tspan>
      </text>
    </g>
    <g
       id="g286"
       transform="matrix(0.23283333,0,0,-0.23283333,8.498815,216.90282)">
      <text
         transform="matrix(1,0,0,-1,183.3,527.903)"
         style="font-variant:normal;font-weight:normal;font-size:11px;font-family:Caladea;-inkscape-font-specification:Caladea-Regular;writing-mode:lr-tb;fill:#000000;fill-opacity:1;fill-rule:nonzero;stroke:none"
         id="text290">
        <tspan
           x="0 5.9840002 11.88 14.168 16.368 22.351999 27.555 31.339001 35.838001 41.041 50.039001 55.242001 61.237 64.932999 70.917 73.216003 79.210999 85.096001 87.394997 93.389999 97.790001 103.774 107.558 112.761 117.26 121.759 127.743"
           y="0"
           sodipodi:role="line"
           id="tspan288">L3. Letramento do professor</tspan>
      </text>
    </g>
    <g
       id="g292"
       transform="matrix(0.23283333,0,0,-0.23283333,26.379211,216.91668)">
      <text
         transform="matrix(1,0,0,-1,332.3,527.903)"
         style="font-variant:normal;font-weight:normal;font-size:11px;font-family:Caladea;-inkscape-font-specification:Caladea-Regular;writing-mode:lr-tb;fill:#000000;fill-opacity:1;fill-rule:nonzero;stroke:none"
         id="text296">
        <tspan
           x="0 5.9840002 11.979 14.179 16.478001 22.462 27.665001 31.361 35.860001 41.161999 50.061001 55.362999 61.358002 65.054001 71.038002 73.237999 79.233002 82.236 87.439003 90.442001 94.225998 99.429001"
           y="0"
           sodipodi:role="line"
           id="tspan294">L4. Letramento digital</tspan>
      </text>
    </g>
    <g
       id="g298"
       transform="matrix(0.23283333,0,0,-0.23283333,8.498815,218.63794)">
      <text
         transform="matrix(1,0,0,-1,183.3,512.403)"
         style="font-variant:normal;font-weight:normal;font-size:11px;font-family:Caladea;-inkscape-font-specification:Caladea-Regular;writing-mode:lr-tb;fill:#000000;fill-opacity:1;fill-rule:nonzero;stroke:none"
         id="text302">
        <tspan
           x="0 5.9840002 11.88 14.168 16.368 22.351999 27.555 31.339001 35.838001 41.041 50.039001 55.242001 61.237 64.932999 70.917 73.216003 76.208 79.210999 82.906998 88.110001 92.609001 97.811996 102.311 105.314"
           y="0"
           sodipodi:role="line"
           id="tspan300">L5. Letramento literário</tspan>
      </text>
    </g>
    <g
       id="g304"
       transform="matrix(0.23283333,0,0,-0.23283333,26.379211,218.63002)">
      <text
         transform="matrix(1,0,0,-1,332.3,512.403)"
         style="font-variant:normal;font-weight:normal;font-size:11px;font-family:Caladea;-inkscape-font-specification:Caladea-Regular;writing-mode:lr-tb;fill:#000000;fill-opacity:1;fill-rule:nonzero;stroke:none"
         id="text308">
        <tspan
           x="0 5.9840002 11.979 14.179 16.478001 22.462 27.665001 31.361 35.860001 41.161999 50.061001 55.362999 61.358002 65.054001 71.038002 73.237999 78.43 81.432999 86.735001 92.730003 96.426003 99.429001 103.114 106.117 111.309"
           y="0"
           sodipodi:role="line"
           id="tspan306">L6. Letramento científico</tspan>
      </text>
    </g>
  </g>
</svg>
